<svg height="400pt" width="400pt" xmlns="http://www.w3.org/2000/svg" xmlns:xlink="http://www.w3.org/1999/xlink"><defs><linearGradient id="c"><stop offset="0" stop-color="#fff"/><stop offset="1" stop-color="#fff" stop-opacity="0"/></linearGradient><linearGradient id="b"><stop offset="0"/><stop offset="1" stop-opacity="0"/></linearGradient><linearGradient id="a"><stop offset="0" stop-color="#b7c3cc"/><stop offset="1" stop-color="#001e29"/></linearGradient><radialGradient cx="247.816" cy="351.099" fx="251.405" fy="351.099" gradientTransform="scale(.9902 1.0099)" gradientUnits="userSpaceOnUse" id="d" r="237.265" xlink:href="#a"/><linearGradient gradientTransform="scale(1.82612 .54761)" gradientUnits="userSpaceOnUse" id="e" x1="129.028" x2="129.925" xlink:href="#c" y1="170.516" y2="367.635"/></defs><path d="M404.35 251.162a156.25 156.25 0 1 1-312.5 0 156.25 156.25 0 1 1 312.5 0z" font-size="12" fill="#000024" fill-rule="evenodd"/><path d="M206.17 107.346c-25.06 6.447-47.957 20.983-65.936 39.457-33.59 34.688-49.415 85.84-39.274 133.3 7.768 38.332 30.319 73.819 63.261 95.34 39.082 26.542 90.825 33.344 135.133 16.523 44.59-15.935 80.583-53.96 92.968-99.846 14.03-47.365 2.42-100.997-30.04-138.253-27.522-32.74-69.296-52.413-112.073-52.8-2.434-.41-30.23 1.556-44.04 6.28z" font-size="12" fill="url(#d)" fill-rule="evenodd"/><path d="M338.866 239.82c-10.37 17.497 15.281 19.94 24.51 25.141-3.457-31.524 10.512-20.807 13.142-30.822-2.46-15.475-20.24-18.289-30.195-28.184-.369-19.455-33.444-17.876-30.69-31.893-5.346-59.729-15.582-5.063-17.324-14.89-11.087 12.897-14.513-1.694-11.166-10.994.264-11.365-18.639-11.91-25.607-6.575-5.885 3.138-14.404 3.963-17.373 11.046-13.66 2.742-12.28-17.784-26.048-16.916-15.276-6.427-21.572-23.77-33.99-13.45-8.937 2.883-27.358 38.751-33.694 23.764-13.5-9.516-20.451 15.28-20.026 25.654-6.348 13.802-17.9 25.143-24.397 39.356-8.097 13.6-8.058 31.852-2.772 46.369 16.91-8.305 18.513 27.307 24.313 42.266 8.44 10.014 21.898-12.821 25.417-6.91 22.751 14.162-5.254 18.337-1.217 29.083 4.54 15.527 24.377 5.681 35.735 9.203 4.76 1.813 10.807 12.467 13.777 3.175-1.814-6.809-5.628-13.445 4.775-13.371 7.315-6.393 17.349-5.35 24.82-7.242 9.04-11.571-10.091-19.332-4.874-30.443 2.878-11.758-12.73-8.494-10.462-18.846-7.012-5.883-11.048-16.424.223-20.806 7.948-5.15 29.707 5.128 24.31-11.2-6.896-.468-16.33-6.602-8.817-14.327 10.757-7.505 26.837 6.336 36.888-4.946 1.092-5.465 4.6-20.74 11.75-10.346-2.003 12.706 4.414 23.495 16.935 28.604 5.625 3.783 11.442 24.659 18.963 12.144-10.58-15.807-1.326-36.935 21.493-9.717-.278 2.058-.636 4.909 1.601 6.073zm-112.572-59.733c-3.373-9.641-15.855.888-7.013 5.945-1.495 18.168-23.383 19.29-37.294 19.685-8.718 4.292-20.67 6.597-27.584 10.788-1.564 11.398 17.747 10.622 15.712 22.827 8.464 11.957 22.01 19.653 28.372 33.172 12.227 10.86 6.569-16.046-1.11-17.92-11.846-4.492-26.133-24.018-7.628-30.075 12.233-3.44 6.304-25.137 22.916-20.183 15.144 3.922 14.776-14.074 24.42-20.796 2.213-9.642-5.702-6.694-10.791-3.443z" fill-rule="evenodd" fill-opacity=".251"/><path d="M248 402.667c-82.8 0-151.244-67.499-151.244-150.667S161.866 101.333 248 101.333v301.334z" fill="#000024" fill-opacity=".864"/><path d="M246.56 101.291c-49.235 2.104-101.952 21.837-134.847 87.28 13.28 1.103 31.827-10.84 63.37-6.952 31.542 3.887 64.707 20.355 77.984 19.795 36.372-2.017 57.685-9.13 78.34-20.857 21.711-6.51 57.865 12.538 51.473 6.068-22.833-52.962-75.742-83.54-136.32-85.334z" font-size="12" opacity=".7" fill="url(#e)" fill-rule="evenodd"/></svg>