<svg viewBox="0 0 48 48" xmlns="http://www.w3.org/2000/svg" xmlns:xlink="http://www.w3.org/1999/xlink"><defs><linearGradient id="a"><stop stop-color="#346604" offset="0"/><stop stop-color="#4e9a06" offset="1"/></linearGradient><radialGradient id="b" cx="18.248" cy="15.716" r="29.993" gradientTransform="translate(-1.708 .382) scale(1.0056)" gradientUnits="userSpaceOnUse"><stop stop-color="#d3e9ff" offset="0"/><stop stop-color="#d3e9ff" offset=".155"/><stop stop-color="#4074ae" offset=".75"/><stop stop-color="#36486c" offset="1"/></radialGradient><radialGradient id="d" cx="37.179" cy="31.097" r="19.094" gradientTransform="matrix(.95296 -.02666 .02618 .93592 .663 2.18)" gradientUnits="userSpaceOnUse" xlink:href="#a"/><radialGradient id="c" cx="37.179" cy="31.097" r="19.094" gradientTransform="matrix(.95296 -.02667 .02618 .93636 .343 2.369)" gradientUnits="userSpaceOnUse" xlink:href="#a"/><radialGradient id="e" cx="37.179" cy="31.097" r="19.094" gradientTransform="matrix(.95296 -.0264 .02618 .92692 1.068 2.35)" gradientUnits="userSpaceOnUse" xlink:href="#a"/></defs><path d="M42.5 23.999C42.5 34.769 33.769 43.5 23 43.5c-10.77 0-19.5-8.73-19.5-19.501C3.5 13.23 12.23 4.5 23 4.5c10.769 0 19.5 8.73 19.5 19.499z" fill="url(#b)" stroke="#39396c" stroke-width=".333"/><path d="M43.88 20.648l-.353.683c-.334-.393-.71-.724-1.09-1.07l-.836.123-.764-.863v1.068l.655.495.435.493.582-.658.437.823v.823l-.656.74-1.199.823-.908.906-.582-.66.29-.74-.58-.658-.982-2.098-.835-.945-.22.246.329 1.193.617.7c.353 1.017.701 1.99 1.164 2.962.718 0 1.395-.076 2.108-.166v.577l-.873 2.139-.8.904-.654 1.4v2.303l.22.907-.364.41-.801.494-.836.699.692.781-.946.825.182.533-1.418 1.605h-.944l-.8.494h-.51v-.658l-.217-1.318c-.281-.826-.574-1.647-.872-2.467 0-.606.036-1.205.072-1.81l.365-.823-.51-.988.037-1.358-.691-.78.345-1.132-.562-.638h-.983l-.327-.37-.981.618-.4-.454-.909.782c-.617-.7-1.235-1.4-1.853-2.098l-.727-1.729.654-.986-.363-.411.799-1.894c.656-.816 1.342-1.6 2.035-2.386l1.236-.329 1.381-.164.946.247 1.344 1.357.473-.534.653-.082 1.237.41h.945l.654-.576.291-.41-.655-.412-1.09-.082c-.304-.42-.585-.861-.944-1.234l-.365.164-.145 1.07-.654-.74-.145-.824-.726-.574h-.292l.727.822-.291.74-.581.164.363-.74-.655-.328-.58-.658-1.092.246-.144.328-.655.412-.363.905-.908.452-.4-.452h-.436v-1.481l.945-.494h.727l-.147-.575-.58-.577.98-.206.546-.616.435-.741h.8l-.218-.575.51-.33v.659l1.09.246 1.09-.904.073-.412.944-.658c-.342.042-.684.074-1.018.164v-.74l.364-.823h-.364l-.798.74-.219.411.219.577-.364.986-.581-.329-.508-.575-.801.575-.291-1.316 1.38-.904v-.495l.874-.575 1.38-.33.946.33 1.744.329-.435.493h-.946l.946.987.726-.822.157-.282c3.13 2.869 5.88 6.664 6.593 11.694z" transform="matrix(.98791 0 0 .98742 -1.27 .43)" fill="url(#c)"/><path d="M26.07 9.236l-.073.493.51.33.87-.576-.435-.494-.582.33-.29-.083M26.87 5.863l-1.89-.74-2.18.246-2.69.74-.51.494 1.672 1.152v.658l-.654.658.873 1.73.58-.33.729-1.152c1.123-.347 2.13-.74 3.197-1.235l.873-2.22M28.833 12.775l-.291-.741-.51.165.147.904.654-.328M29.123 12.609l-.145.988.8-.165.58-.575-.508-.494c-.171-.455-.368-.88-.581-1.316h-.436v.493l.29.329v.74" fill="url(#d)" transform="matrix(.98791 0 0 .98789 -1.586 .616)"/><path d="M18.365 28.242l-.582-1.152-1.09-.247-.582-1.562-1.453.164-1.236-.905-1.309 1.152v.181c-.396-.114-.883-.13-1.235-.346l-.291-.823V23.8l-.872.082.218-1.727h-.51l-.508.658-.509.246-.727-.41-.073-.906.146-.987 1.09-.822h.872l.145-.494 1.09.246.8.988.146-1.646 1.381-1.152.51-1.234 1.017-.411.581-.823 1.308-.248.655-.986h-1.963l1.236-.576h.872l1.236-.412.145-.492-.436-.412-.509-.166.146-.493-.364-.74-.872.328.145-.658-1.017-.576-.8 1.398.073.494-.8.33-.509 1.07-.218-.988-1.381-.576-.218-.74 1.817-1.07.8-.74.073-.905-.436-.247-.582-.083-.363.905s-.703.056-.86.094c-2.576 2.141-6.06 6.065-6.87 13.37.036.174.679 1.182.679 1.182l1.526.904 1.526.412.655.824 1.017.74.582-.082.436.196v.133l-.581 1.563-.437.658.146.33-.364 1.233 1.309 2.386 1.308 1.153.582.822-.073 1.728.436.987-.436 1.892s-.034-.011.021.178c.057.19 2.33 1.451 2.474 1.344l.267-.205-.145-.41.581-.577.218-.576.946-.33.726-1.81-.217-.493.507-.74 1.091-.248.582-1.316-.145-1.645.872-1.234.145-1.235c-1.193-.591-2.377-1.2-3.561-1.81" transform="matrix(.98791 0 0 .99747 -1.986 .426)" fill="url(#e)" stroke-width=".995"/><path d="M16.766 9.565l.727.494h.582v-.576l-.727-.33-.582.412" fill="url(#d)" transform="matrix(.98791 0 0 .98789 -1.586 .616)"/><path d="M14.876 8.907l-.364.905h.727l.364-.823c.314-.222.626-.445.945-.658l.727.247c.484.33.969.658 1.454.987l.727-.658-.8-.329-.364-.74-1.38-.165-.074-.412-.654.165-.29.576-.364-.74-.145.328.073.823-.582.494M17.492 6.85l.364-.329.727-.165c.498-.242.998-.405 1.526-.576l-.29-.494-.938.135-.444.442-.73.106-.65.305-.316.153-.193.259.944.164M18.728 14.666l.436-.658-.654-.493.218 1.151" fill="url(#d)" transform="matrix(.98791 0 0 .98789 -1.586 .616)"/></svg>