<svg viewBox="0 0 48 48" xmlns="http://www.w3.org/2000/svg" xmlns:xlink="http://www.w3.org/1999/xlink"><defs><linearGradient id="a"><stop stop-color="#d3bda1" offset="0"/><stop stop-color="#d3bda1" stop-opacity="0" offset="1"/></linearGradient><linearGradient id="b" x1="330.82" x2="333.64" y1="-441.65" y2="-444.33" gradientUnits="userSpaceOnUse" xlink:href="#a"/><linearGradient id="c" x1="327.41" x2="325.31" y1="-440.29" y2="-445.02" gradientUnits="userSpaceOnUse" xlink:href="#a"/><radialGradient id="d" cx="-27.422" cy="-16.483" r="9.781" gradientTransform="matrix(-2.7789 -.85174 .57778 -1.8204 -89.257 -64.802)" gradientUnits="userSpaceOnUse"><stop stop-color="#61330d" stop-opacity="0" offset="0"/><stop stop-color="#7b4111" stop-opacity=".602" offset="1"/></radialGradient></defs><ellipse cx="24" cy="24" rx="18.442" ry="18" fill="#aa592d"/><path d="M7.416 31.92l33.569-.283-3.301 4.81H10.623z" fill="#af804e"/><path d="M15.338 7.937l7.389-1.986 3.469.06 6.81 2.106.065.421-18.375.181.642-.782z" fill="#b69564"/><g transform="translate(-421.94 625.69) scale(1.3518)"><path d="M316.36-447.47c1.103-1.765 5.37-1.984 6.779-1.138 1.187.713 2.937.372 5.06-.2 1.329-.357 2.412 1.634 6.338.354 1.91-.622 3.5-.647 5.728-.357 1.04.136 2.318.204 2.833.67.612.554.367 1.556.424 2.3.26 3.4-3.422 4.297-6.246 2.942-2.415-1.16-4.827 1.895-7.809 1.125-3.258-.84-7.162-1.194-8.345-.379-1.24.855-3.92.765-4.457-.557-.5-1.228-.453-3.064-.305-4.76z" fill="#b76c3c"/><path d="M317.72-438.68h24.315l.731-1.99h-25.589z" fill="#d3bda1"/><path d="M332.09-439.54c1.033 1.942 5.563 5.059 9.567.01-1.308-.458-9.73-.108-9.567-.01z" fill="#d3bda1"/><path d="M332.09-439.97c1.033-1.942 5.563-5.059 9.567-.01-1.308.458-9.73.108-9.567.01z" fill="#d3bda1"/><path d="M322.69-446.02c-.009-.009.027 0 0 0z" fill="none" stroke="#000" stroke-width=".74"/><path d="M321.39-455.47l-.739.74h18.641l-1.036-.74z" color="#000" fill="#a09b8c" solid-color="#000000" style="isolation:auto;mix-blend-mode:normal;shape-padding:0;text-decoration-color:#000;text-decoration-line:none;text-decoration-style:solid;text-indent:0;text-orientation:mixed;text-transform:none" white-space="normal"/><path d="M320.5-454.73l-.592.74h19.975l-.666-.74z" color="#000" fill="#cfa565" solid-color="#000000" style="isolation:auto;mix-blend-mode:normal;shape-padding:0;text-decoration-color:#000;text-decoration-line:none;text-decoration-style:solid;text-indent:0;text-orientation:mixed;text-transform:none" white-space="normal"/><ellipse transform="matrix(.83566 0 0 .97486 310.45 -470.33)" cx="31.625" cy="31.375" rx="3.375" ry="1.625" fill="#fbad3e" stroke="#ca6919" stroke-linecap="round" stroke-width=".82"/><ellipse transform="matrix(.35619 0 0 .41337 325.61 -452.71)" cx="31.625" cy="31.375" rx="3.375" ry="1.625" fill="#f57900"/><path d="M331.39-440.29c-.139-1.67.57-2.296 2.25-2.194-1.815-.969-4.011.61-4.349 1.992" fill="url(#b)"/><path d="M320.5-435.5l.814.74h17.089l.74-.74z" color="#000" fill="#7d6f62" solid-color="#000000" style="isolation:auto;mix-blend-mode:normal;shape-padding:0;text-decoration-color:#000;text-decoration-line:none;text-decoration-style:solid;text-indent:0;text-orientation:mixed;text-transform:none" white-space="normal"/><path d="M319.91-436.24l.592.74h18.79l.592-.74z" color="#000" fill="#d3bda1" solid-color="#000000" style="isolation:auto;mix-blend-mode:normal;shape-padding:0;text-decoration-color:#000;text-decoration-line:none;text-decoration-style:solid;text-indent:0;text-orientation:mixed;text-transform:none" white-space="normal"/><path d="M316.32-444.74h27.131" stroke="#b5b6b3" stroke-width=".739" fill="none"/><path d="M316.5-447.33l-.295 2.219h27.37l-.37-2.219z" color="#000" fill="#e8cb9e" style="text-decoration-line:none;text-indent:0;text-transform:none"/><path d="M319.09-453.25l-.407.74h22.378l-.444-.74z" color="#000" fill="#dcb999" solid-color="#000000" style="isolation:auto;mix-blend-mode:normal;shape-padding:0;text-decoration-color:#000;text-decoration-line:none;text-decoration-style:solid;text-indent:0;text-orientation:mixed;text-transform:none" white-space="normal"/><path d="M318.58-452.51l-.37.74h23.377l-.444-.74z" color="#000" fill="#babdb6" solid-color="#000000" style="isolation:auto;mix-blend-mode:normal;shape-padding:0;text-decoration-color:#000;text-decoration-line:none;text-decoration-style:solid;text-indent:0;text-orientation:mixed;text-transform:none" white-space="normal"/><path d="M318.15-451.77l-.721 1.48h24.967l-.814-1.48z" color="#000" fill="#d6aa67" style="text-decoration-line:none;text-indent:0;text-transform:none"/><path d="M317.39-450.29l-.296.74h25.596l-.37-.74z" color="#000" fill="#babdb6" solid-color="#000000" style="isolation:auto;mix-blend-mode:normal;shape-padding:0;text-decoration-color:#000;text-decoration-line:none;text-decoration-style:solid;text-indent:0;text-orientation:mixed;text-transform:none" white-space="normal"/><path d="M327.41-440.29c-.139-1.67.57-2.296 2.25-2.194-1.815-.969-4.011.61-4.349 1.992" fill="url(#c)"/><path d="M323.24-433.65l1.258.74h10.8l1.258-.74z" color="#000" fill="#956232" solid-color="#000000" style="isolation:auto;mix-blend-mode:normal;shape-padding:0;text-decoration-color:#000;text-decoration-line:none;text-decoration-style:solid;text-indent:0;text-orientation:mixed;text-transform:none" white-space="normal"/></g><ellipse transform="matrix(-.92803 -.3725 .38848 -.92146 0 0)" cx="-31.462" cy="-13.38" rx="18.434" ry="18.116" fill="url(#d)" stroke="#d3d7cf" stroke-linecap="square" stroke-width=".326"/></svg>