<svg viewBox="0 0 48 48" xmlns="http://www.w3.org/2000/svg"><defs><radialGradient id="a" cx="-58.971" cy="-5.528" r="9.75" gradientTransform="matrix(.02841 1.5924 -1.5336 .02736 -65.774 88.528)" gradientUnits="userSpaceOnUse"><stop stop-color="#ec780d" offset="0"/><stop stop-color="#b56f2d" offset=".458"/><stop stop-color="#e08f44" offset="1"/></radialGradient></defs><g transform="translate(-473.418 628.142) scale(1.3518)"><path transform="translate(451.13 -447.41) scale(1.4795)" d="M-46.5.25c0 5.385-4.365 9.75-9.75 9.75S-66 5.635-66 .25s4.365-9.75 9.75-9.75S-46.5-5.135-46.5.25z" fill="url(#a)"/><path d="M360.377-449.032c-.01-.01.03 0 0 0z" fill="none" stroke="#000" stroke-width=".7398000000000001"/><path d="M366.41-435.87a.394.394 0 1 1-.787 0 .394.394 0 0 1 .787 0z" fill="#fff" opacity=".617"/><path d="M366.164-438.291c.9-.65 1.215-.464 1.479-.313.594.338-.037 1.617 1.373.445 2.843.556 1.57.947 2.698 2.604-.793-.11-2.192-.159-2.617.576-.549.472-1.478.56-2.052.169-.83-.069-1.535.396-2.353.044-2.13-1.796-1.775-.213-1.289-2.816-1.2-1.026-1.295-2.507.371-1.591.572.166 1.249-.246 1.747.224.249.218.638.243.527.58l.116.078z" fill="#fff" fill-rule="evenodd" opacity=".47"/><path d="M365.945-437.721c2.54-1.94 1.052 1.513 2.84.109 2.488.46.869.216 1.856 1.586-.694-.092-1.453.21-1.825.818-.48.39-1.2.344-1.702.02-.725-.056-1.437.446-2.153.156-1.863-1.484-1.552-.472-1.127-2.623-1.05-.848-1.134-1.776.325-1.019.5.138 1.092-.203 1.528.186.217.18.355.488.258.767z" fill="#fff" fill-rule="evenodd"/><path d="M374.406-455.18c-.91.15-.513 1.707-.608 2.23-.101.557-2.179.86-2.888.405s-1.875-1.369-2.433-1.369-1.115.76-.456.963c.659.203 1.267.659.558 1.064-.673.384-.44.425-.457 1.115-.076.026-.095.05-.177.076-1.177.393-1.487.48-2.179.431-.047-.118-.127-.355-.127-.355s-1.52.406-2.939.456c.203-.05-.456-.658-.506-1.013-.051-.355 0-.456-.406-.912-.405-.456-.659-.102-1.216.304-.557.405.05.659-.304 2.128-.355 1.47 1.318.862 2.179 1.216.861.355 1.47.254 2.28.05l.203-.05c.075.087.163.188.228.254.358.358.647.494 1.292.709s.99-.06 1.42-.203c.43-.143.642-.507 1.215-.937.517-.387 1.138-.734 1.52-1.267.256.12.505.258.76.481.102 0 .862.406 1.217.355.354-.05.456-.608.304-1.216-.152-.608.659-.456 1.267-.659s.456-1.013.76-1.317c.304-.304.659-1.216 1.013-1.571.355-.355-.152-1.318-1.317-1.368-.073-.004-.142-.01-.203 0z" fill="#e98b33" opacity=".7"/><path d="M368.674-459.038c.253.152 1.875.506 2.382 1.064.506.557.76 1.773.506 2.027s-.76 0-1.621.101c-.862.101-2.635 0-2.635 0l.253-2.23s.304-.304.71-.557.456-.608.405-.405z" fill="#e98b33"/><path d="M378.845-453.208c-.154-.048-.237.083-.217.406.049.78-.73 2.1-1.922 3.192l2.247 2.737.487 1.646s-.096 1.519-.135 1.698c-.039.18-.736 1.68-.812 1.824-.077.144-2.374.315-2.68.279-.306-.036-.844-.708-.92-.887-.077-.179-.91-1.892-.948-2.179-.038-.286.3-1.77.569-2.128.204-.273.171-.843-.27-1.47-.957.321-1.978.375-2.978-.05-1.234-.525-.876 1.476-1.733 1.925-1.626.852-4.059.8-4.98.203-.4-.258-1.926.006-2.68-.304-.709-.29-.625-1.166-1.245-1.19-1.052-.043-1.636.61-1.49 1.798.326 2.635-1.298-.101-1.948-.405-.65-.304-1.083-2.94-3.465 0 .542 5.98 3.024 8.026 3.024 8.026s1.849-3.415 3.69-1.895 3.626-1.368 6.604-1.368c0 0 2.544 1.267 4.277 1.166.688-.04 1.537.143 2.923.861.49.254.425.646.894.912 1.54.874 3.964.608 3.964.608l2.337-3.952.714-3.649s-2.333 4.054-1.466-.507c.703-3.705-1.173-7.087-1.841-7.297z" fill="#845f3f" opacity=".5"/><path d="M361.129-444.493c1.317-.355 1.621-.963 2.99-.71s3.192.507 3.496.507 1.926.659.76.71-1.723-.051-2.584-.051-3.091.05-3.446.05-1.52-.1-1.216-.506zM371.212-447.33c.507-.052.76-.102.76.1s-.05.558-.354.66-.912.05-.912.05-.051-.76.152-.76.405 0 .354-.05zM374.895-447.027c-.987 1.676-.957 4.112.865 5.068.392.206 2.395-.152 2.242-2.28 0 0 .26-3.18-1.21-5.258-.735-1.039 2.214 2.318 2.316 2.673s.398 1.943.449 2.45.375 1.224.472 1.401 1.176 1.653 1.176 1.653l-1.686 3.037-4.506-2.359s-2.18-2.635-1.977-3.851-.675-3.446 1.859-2.534z" fill="#915f33"/><path d="M377.42-445.196c0 .34-.085.934-.594 1.104-.51.17-1.529.085-1.529.085s-.085-1.274.255-1.274c.709-.144 1.15-.116 1.868.085z" fill="#915f33"/><path d="M360.213-442.51c.507-.051.76-.102.76.1 0 .203-.05.558-.355.66-.304.1-.912.05-.912.05s-.05-.76.152-.76c.203 0 .406 0 .355-.05z" fill="#de8531"/><circle transform="translate(451.2 -447.3) scale(1.4795)" cx="-56.25" cy=".25" r="9.75" fill="none" stroke="#66533f" stroke-width=".25"/></g></svg>