<svg viewBox="0 0 48 48" xmlns="http://www.w3.org/2000/svg"><defs><radialGradient id="d" cx="-27.422" cy="-16.483" r="9.781" gradientTransform="matrix(-2.7895 -.87263 .57788 -1.8583 -91.779 -48.842)" gradientUnits="userSpaceOnUse"><stop stop-color="#dedede" stop-opacity="0" offset="0"/><stop stop-color="#7797e3" stop-opacity=".713" offset="1"/></radialGradient><linearGradient id="a" x1="24.25" x2="24.25" y1="35.938" y2="29.5" gradientUnits="userSpaceOnUse"><stop stop-color="#204a87" stop-opacity="0" offset="0"/><stop stop-color="#204a87" offset=".494"/><stop stop-color="#204a87" stop-opacity="0" offset="1"/></linearGradient><linearGradient id="c" x1="24.25" x2="24.25" y1="35.938" y2="29.124" gradientTransform="matrix(1 0 0 -1 0 47.258)" gradientUnits="userSpaceOnUse"><stop stop-color="#204a87" stop-opacity="0" offset="0"/><stop stop-color="#417cd2" stop-opacity=".722" offset=".494"/><stop stop-color="#204a87" stop-opacity="0" offset="1"/></linearGradient><radialGradient id="b" cx="15.688" cy="24.385" r="5.928" gradientTransform="matrix(0 -.66474 1.1652 0 -12.726 34.616)" gradientUnits="userSpaceOnUse"><stop stop-color="#204a87" offset="0"/><stop stop-color="#204a87" stop-opacity="0" offset="1"/></radialGradient></defs><circle transform="matrix(2 0 0 2 136.502 23.5)" cx="-56.25" cy=".25" r="9.75" stroke="#204a87" stroke-width=".33" fill="#729fcf"/><path d="M8.6 36h30.9l3.825-8.125L5.25 29.25z" fill="url(#a)"/><path d="M15.656 20.969c-.582.065-1.044.537-1.642.532-.552-.262-1.072.266-1.63.189-1.11.194-2.238.559-3.087 1.33-.61.77-.21 2.102.746 2.368.617.412 1.276.866 2.05.852.844.139 1.658.415 2.445.745.905.1 1.73-.378 2.597-.545 1.02-.359 2.052-.714 3.022-1.19.731-.555.981-1.763.323-2.468-.497-.334-1.228-.205-1.609-.732-.907-.76-2.195-.581-3.215-1.081zm-4.469 5.156c-.131-.083.083.131 0 0z" fill="url(#b)"/><path d="M19.617 25.277c-.326.154-.752.134-1.134.174-.33-.117-.757-.156-1.103-.041-.4-.08-.917-.052-1.18.178-.263.133-.704.047-.894.248-.133.185-.281.485.093.6.282.137.511.339.882.386.293.103.672.18.986.065.576-.072 1.13.104 1.7.118.337.056.716.126 1.033-.005a3.116 3.116 0 0 1 1.103-.116c.31-.042.523-.289.874-.177.385.016.539-.212.727-.368.185-.153.204-.414-.085-.522-.484-.236-1.066-.46-1.704-.402-.357.014-.743.019-1.059-.104a1.006 1.006 0 0 0-.239-.034zm3.163 1.088c-.118-.115-.02.122 0 0zm-4.961.626c-.153.08.114.047 0 0zm-1.55-.054c-.251.117.189.04 0 0zm5.456-.3c.198-.062-.016.126 0 0zM18.75 20.625c-.807.116-1.663.098-2.406.469-.093-.133-.263.126-.063.093.213-.06.1.31.313.25.432.345 1.047.283 1.562.407a4.957 4.957 0 0 1 3.004-.035c.904.131 1.786.543 2.709.45.174-.01.391-.071.381-.29-.254-.19-.636-.068-.844-.313-.138.05-.336.435-.468.156-.986-.181-1.814-.772-2.688-1.218-.49-.134-1.008-.049-1.5.03zm-1.219 1.438c.076.217.076-.218 0 0zM28.969 23.375c-.876.008-1.77.138-2.563.531-.148.105-.436.127-.343.375.131.183.327-.128.478-.142.825-.424 1.79-.411 2.695-.369 1.065.027 2.133.136 3.17.386l.563.188c-.407-.676-1.313-.427-1.875-.844-.706-.077-1.413-.207-2.125-.125z" fill="#eeeeec"/><path d="M34.031 32.188c-1.008.108-2.02.151-3.031.219-.143.2-.399.297-.506.526.065.24.403.246.46.49.135.248.427.071.58-.048.184-.02.365.045.548.061.314.058.632.125.954.099.256-.011.506-.072.75-.146.303-.037.624.168.912-.001a.97.97 0 0 1 .643-.087c.214-.14.152-.492-.068-.594-.35-.223-.741-.381-1.065-.645-.085-.02-.139.065-.177.126z" fill="#0e203b"/><path d="M9.1 11.258h29.8l4.225 8.125-37.787-1.375z" fill="url(#c)"/><path d="M14.928 16.101c-.326.154-.752.134-1.134.174-.33-.117-.757-.156-1.103-.041-.4-.08-.917-.052-1.18.178-.263.133-.704.047-.894.248-.133.185-.281.485.093.6.282.137.511.339.882.386.293.103.672.18.986.065.576-.072 1.13.104 1.7.118.337.056.716.126 1.033-.005a3.116 3.116 0 0 1 1.103-.116c.31-.042.523-.289.874-.177.385.016.539-.212.727-.368.185-.153.204-.414-.085-.522-.484-.236-1.066-.46-1.704-.402-.357.014-.743.019-1.059-.104a1.006 1.006 0 0 0-.239-.034zm3.163 1.088c-.118-.115-.02.122 0 0zm-4.961.626c-.153.08.114.047 0 0zm-1.55-.054c-.251.117.189.04 0 0zm5.456-.3c.198-.062-.016.126 0 0z" fill="#eeeeec" opacity=".5"/><g><ellipse transform="rotate(-128.695) skewX(-.118)" cx="-33.696" cy="3.753" rx="19.175" ry="19.184" fill="url(#d)"/></g></svg>