<?xml version="1.0" encoding="UTF-8"?>
<svg enable-background="new 0 0 501.381 501.381" version="1.1" viewBox="0 0 501.381 501.381" xml:space="preserve" xmlns="http://www.w3.org/2000/svg">
	<path d="m71.312 339.21c-0.53-1.071-1.051-2.147-1.562-3.229-0.153-0.323-0.302-0.647-0.453-0.971-0.49-1.052-0.974-2.108-1.446-3.17-0.157-0.354-0.311-0.711-0.466-1.066-0.458-1.047-0.912-2.095-1.352-3.151-0.154-0.368-0.302-0.74-0.453-1.109-0.433-1.056-0.863-2.113-1.279-3.177-0.135-0.347-0.264-0.698-0.397-1.046-0.422-1.099-0.841-2.199-1.244-3.307-0.072-0.199-0.139-0.4-0.211-0.599-1.189-3.306-2.29-6.654-3.307-10.038-10.91 10.607-15.822 19.524-13.269 25.792 2.553 6.267 12.309 9.206 27.524 9.17-0.569-1.087-1.127-2.179-1.677-3.277-0.137-0.273-0.272-0.548-0.408-0.822z" fill="none"/>
	<path d="m455.51 167.25c-2.554-6.269-12.304-9.214-27.527-9.176 5.802 11.084 10.594 22.778 14.257 34.962 10.904-10.604 15.823-19.521 13.27-25.786z" fill="none"/>
	<path d="m364.02 104.02c-68.087 0-128.22 34.032-164.34 86.005 7.352-3.214 14.827-6.378 22.429-9.475 70.087-28.554 136.72-46.191 187.32-51.504-26.194-34.134-63.142-59.573-105.78-71.256 32.131 8.819 61.025 25.462 84.531 47.734-7.927-0.955-15.979-1.504-24.164-1.504z" fill="#708AFF"/>
	<path d="m90.102 369.88c-0.578-0.777-1.144-1.563-1.711-2.349 0.565 0.787 1.134 1.571 1.711 2.349z" fill="#708AFF"/>
	<path d="m285.19 53.664c1.202 0.209 2.399 0.434 3.594 0.665-1.195-0.23-2.392-0.456-3.594-0.665z" fill="#708AFF"/>
	<path d="m289.9 54.544c1.281 0.255 2.556 0.525 3.827 0.805-1.272-0.279-2.546-0.55-3.827-0.805z" fill="#708AFF"/>
	<path d="m299.14 56.613c1.447 0.361 2.888 0.737 4.322 1.129-1.435-0.392-2.875-0.769-4.322-1.129z" fill="#708AFF"/>
	<path d="m442.19 193.08c0.017-0.016 0.032-0.032 0.049-0.049-3.663-12.185-8.455-23.879-14.257-34.962-38.626 0.097-112.51 19.413-193.65 52.47-20.612 8.397-40.263 17.102-58.575 25.857-7.589 21.124-11.734 43.89-11.734 67.627 0 57.178 24.033 108.71 62.502 145.16-55.619-6.704-104.21-36.219-136.14-78.919 0.416 0.558 0.829 1.118 1.251 1.671 36.542 47.863 94.185 78.753 159.05 78.753 110.46 0 200-89.543 200-200 0-8.11-0.496-16.103-1.434-23.96-8e-3 6e-3 -0.015 0.012-0.023 0.018-1.383-11.56-3.773-22.802-7.043-33.668z" fill="#708AFF"/>
	<path d="m69.75 335.98c0.511 1.082 1.032 2.158 1.562 3.229-0.53-1.072-1.051-2.148-1.562-3.229z" fill="#708AFF"/>
	<path d="m66.033 327.62c0.44 1.056 0.894 2.104 1.352 3.151-0.458-1.047-0.912-2.096-1.352-3.151z" fill="#708AFF"/>
	<path d="m64.301 323.33c0.415 1.065 0.846 2.122 1.279 3.177-0.433-1.055-0.864-2.112-1.279-3.177z" fill="#708AFF"/>
	<path d="m62.66 318.98c0.403 1.108 0.823 2.208 1.244 3.307-0.422-1.099-0.842-2.199-1.244-3.307z" fill="#708AFF"/>
	<path d="m86.967 365.54c-0.077-0.109-0.152-0.219-0.229-0.329 0.077 0.11 0.153 0.22 0.229 0.329z" fill="#708AFF"/>
	<path d="m67.851 331.84c0.472 1.062 0.956 2.117 1.446 3.17-0.49-1.053-0.974-2.108-1.446-3.17z" fill="#708AFF"/>
	<path d="m59.143 308.34l-1e-3 1e-3c1.017 3.384 2.118 6.732 3.307 10.038-1.19-3.305-2.288-6.655-3.306-10.039z" fill="#708AFF"/>
	<path d="m294.55 55.528c1.362 0.305 2.719 0.626 4.071 0.959-1.352-0.333-2.708-0.654-4.071-0.959z" fill="#708AFF"/>
	<path d="m51.413 267.64c-0.059-0.699-0.121-1.398-0.173-2.099 0.052 0.701 0.114 1.4 0.173 2.099z" fill="#708AFF"/>
	<path d="m265.77 51.254c0.892 0.067 1.78 0.151 2.669 0.229-0.889-0.078-1.776-0.163-2.669-0.229z" fill="#708AFF"/>
	<path d="m50.813 257.32c-0.018-0.552-0.045-1.102-0.058-1.656 0.013 0.554 0.04 1.104 0.058 1.656z" fill="#708AFF"/>
	<path d="m260.78 50.943c0.792 0.039 1.579 0.096 2.369 0.145-0.79-0.048-1.577-0.105-2.369-0.145z" fill="#708AFF"/>
	<path d="m255.76 50.755c0.633 0.016 1.261 0.048 1.892 0.07-0.632-0.022-1.26-0.055-1.892-0.07z" fill="#708AFF"/>
	<path d="m73.397 343.3c-0.568-1.086-1.127-2.179-1.677-3.277 0.55 1.098 1.108 2.191 1.677 3.277z" fill="#708AFF"/>
	<path d="m280.41 52.892c1.128 0.168 2.251 0.353 3.374 0.54-1.123-0.187-2.246-0.372-3.374-0.54z" fill="#708AFF"/>
	<path d="m51.89 272.59c-0.079-0.724-0.159-1.447-0.23-2.173 0.071 0.726 0.151 1.449 0.23 2.173z" fill="#708AFF"/>
	<path d="m275.58 52.231c1.053 0.131 2.1 0.278 3.148 0.426-1.048-0.147-2.095-0.295-3.148-0.426z" fill="#708AFF"/>
	<path d="m270.7 51.684c0.976 0.097 1.948 0.211 2.92 0.323-0.973-0.111-1.944-0.226-2.92-0.323z" fill="#708AFF"/>
	<path d="m51.053 262.58c-0.038-0.655-0.083-1.309-0.115-1.966 0.032 0.657 0.077 1.311 0.115 1.966z" fill="#708AFF"/>
	<path d="m226.53 449.19c-38.469-36.45-62.502-87.984-62.502-145.16 0-23.737 4.145-46.503 11.734-67.627-53.781 25.713-95.958 51.86-116.62 71.945 1.018 3.384 2.116 6.734 3.306 10.04 0.072 0.199 0.139 0.4 0.211 0.599 0.403 1.108 0.822 2.208 1.244 3.307 0.134 0.348 0.262 0.698 0.397 1.046 0.415 1.065 0.845 2.122 1.279 3.177 0.151 0.369 0.299 0.741 0.453 1.109 0.441 1.056 0.894 2.104 1.352 3.151 0.156 0.355 0.309 0.712 0.466 1.066 0.472 1.062 0.956 2.118 1.446 3.17 0.151 0.324 0.301 0.648 0.453 0.971 0.511 1.082 1.032 2.158 1.562 3.229 0.136 0.274 0.271 0.548 0.408 0.822 0.549 1.098 1.108 2.191 1.677 3.277 0.04 0 0.077 1e-3 0.116 1e-3 3.974 7.587 8.371 14.915 13.225 21.905 0.077 0.109 0.152 0.22 0.229 0.329 0.468 0.671 0.948 1.332 1.424 1.997 0.567 0.786 1.133 1.572 1.711 2.349 0.095 0.128 0.191 0.255 0.286 0.382 31.925 42.698 80.52 72.213 136.14 78.917z" fill="#3D6EDD"/>
	<path d="m199.69 190.03c36.12-51.973 96.249-86.005 164.34-86.005 8.185 0 16.237 0.549 24.165 1.505-23.506-22.272-52.4-38.915-84.531-47.734-0.065-0.018-0.13-0.035-0.195-0.053-1.434-0.392-2.875-0.768-4.322-1.129-0.172-0.043-0.344-0.083-0.515-0.126-1.352-0.333-2.708-0.654-4.071-0.959-0.274-0.062-0.549-0.119-0.823-0.179-1.272-0.28-2.547-0.55-3.827-0.805-0.373-0.074-0.749-0.143-1.123-0.215-1.195-0.231-2.392-0.456-3.594-0.665-0.465-0.081-0.934-0.154-1.4-0.232-1.122-0.187-2.245-0.372-3.374-0.54-0.559-0.083-1.121-0.156-1.682-0.235-1.047-0.147-2.095-0.295-3.148-0.426-0.653-0.081-1.309-0.15-1.964-0.225-0.972-0.111-1.943-0.225-2.92-0.323-0.752-0.075-1.509-0.135-2.263-0.201-0.889-0.078-1.777-0.162-2.669-0.229-0.869-0.065-1.742-0.112-2.614-0.166-0.789-0.049-1.577-0.106-2.369-0.145-1.041-0.052-2.088-0.083-3.134-0.119-0.631-0.021-1.259-0.054-1.892-0.07-1.684-0.042-3.373-0.064-5.067-0.064-110.46 0-200 89.543-200 200 0 1.664 0.022 3.323 0.063 4.978 0.013 0.553 0.04 1.103 0.058 1.656 0.036 1.1 0.072 2.2 0.125 3.295 0.032 0.657 0.077 1.311 0.115 1.966 0.058 0.985 0.115 1.97 0.187 2.951 0.052 0.701 0.114 1.4 0.173 2.099 0.078 0.929 0.156 1.857 0.247 2.782 0.071 0.726 0.151 1.449 0.23 2.173 0.074 0.682 0.143 1.365 0.224 2.045 35.579-28.141 87.133-58.181 147.57-84.605z" fill="#3D6EDD"/>
	<path d="m499.73 149.23c-7.739-18.997-41.586-25.296-90.284-20.182-50.601 5.313-117.24 22.95-187.32 51.504-7.602 3.097-15.077 6.261-22.429 9.475-60.44 26.424-111.99 56.464-147.57 84.606-38.395 30.368-58.196 58.521-50.458 77.514 7.737 18.99 41.593 25.27 90.265 20.166-0.095-0.124-0.187-0.252-0.282-0.377-0.422-0.553-0.835-1.113-1.251-1.671-0.095-0.128-0.192-0.254-0.286-0.382-0.577-0.778-1.146-1.561-1.711-2.349-0.476-0.664-0.956-1.326-1.424-1.997-0.076-0.109-0.152-0.219-0.229-0.329-4.854-6.989-9.251-14.318-13.225-21.905-0.04 0-0.077-1e-3 -0.116-1e-3h-1e-3c-15.215 0.036-24.971-2.903-27.524-9.17s2.359-15.184 13.269-25.792l1e-3 -1e-3c20.658-20.085 62.835-46.232 116.62-71.945 18.312-8.755 37.963-17.46 58.575-25.857 81.14-33.057 155.02-52.373 193.65-52.47 15.223-0.038 24.973 2.907 27.527 9.176 2.553 6.266-2.366 15.182-13.27 25.786-0.017 0.016-0.032 0.032-0.049 0.049 3.271 10.866 5.66 22.108 7.044 33.667 8e-3 -6e-3 0.015-0.012 0.023-0.018 38.378-30.359 58.205-58.508 50.469-77.497z" fill="#9DC1FF"/>
</svg>
