<?xml version="1.0" encoding="UTF-8"?>
<svg version="1.1" viewBox="0 0 613 611.42" xmlns="http://www.w3.org/2000/svg" xmlns:cc="http://creativecommons.org/ns#" xmlns:dc="http://purl.org/dc/elements/1.1/" xmlns:rdf="http://www.w3.org/1999/02/22-rdf-syntax-ns#" xmlns:xlink="http://www.w3.org/1999/xlink">
<defs>
<linearGradient id="e">
<stop stop-color="#daa02f" stop-opacity=".44706" offset="0"/>
<stop stop-color="#bc9624" stop-opacity=".29592" offset="1"/>
</linearGradient>
<linearGradient id="b">
<stop stop-color="#cc9223" stop-opacity=".77647" offset="0"/>
<stop stop-color="#c29e33" stop-opacity=".52941" offset="1"/>
</linearGradient>
<linearGradient id="a">
<stop stop-color="#e2c05b" offset="0"/>
<stop stop-color="#e4c873" stop-opacity=".65306" offset="1"/>
</linearGradient>
<linearGradient id="c">
<stop stop-color="#f7eed4" offset="0"/>
<stop stop-color="#f8f1dc" stop-opacity="0" offset="1"/>
</linearGradient>
<linearGradient id="d">
<stop stop-color="#fff" offset="0"/>
<stop stop-color="#f8f1dc" stop-opacity="0" offset="1"/>
</linearGradient>
<radialGradient id="ag" cx="566.59" cy="1112.6" r="207.66" gradientTransform="matrix(.32166 .6021 -.51626 .2758 958.72 -281.83)" gradientUnits="userSpaceOnUse" xlink:href="#d"/>
<radialGradient id="af" cx="336.27" cy="122.72" r="207.66" gradientTransform="matrix(1.5052 -.32359 .052873 .24594 -176.38 201.35)" gradientUnits="userSpaceOnUse" xlink:href="#d"/>
<radialGradient id="ae" cx="307.26" cy="801.81" r="207.66" gradientTransform="matrix(1.3105 -.28806 .15901 .72339 -223.12 -199.43)" gradientUnits="userSpaceOnUse" xlink:href="#d"/>
<radialGradient id="ad" cx="273.42" cy="1177" r="207.66" gradientTransform="matrix(.24402 .032685 -.013658 .10197 222.77 253.05)" gradientUnits="userSpaceOnUse" xlink:href="#d"/>
<radialGradient id="ac" cx="194.13" cy="1632.9" r="207.66" gradientTransform="matrix(1.7671 .38012 -.14384 .6687 85.968 -671.59)" gradientUnits="userSpaceOnUse" xlink:href="#d"/>
<radialGradient id="ab" cx="260.62" cy="1995.5" r="207.66" gradientTransform="matrix(1.0089 .27899 -.065902 .23831 124.84 31.647)" gradientUnits="userSpaceOnUse" xlink:href="#c"/>
<radialGradient id="aa" cx="48.571" cy="1501.7" r="207.66" gradientTransform="matrix(.83944 -.25413 .073501 .24279 -37.734 -80.893)" gradientUnits="userSpaceOnUse" xlink:href="#c"/>
<radialGradient id="z" cx="418.48" cy="1807.4" r="207.66" gradientTransform="matrix(.43865 .040971 -.038584 .41309 324.59 -225.26)" gradientUnits="userSpaceOnUse" xlink:href="#c"/>
<radialGradient id="y" cx="423.63" cy="1287.8" r="207.66" gradientTransform="matrix(.29916 -.05585 .023677 .12682 365.47 128.11)" gradientUnits="userSpaceOnUse" xlink:href="#c"/>
<radialGradient id="x" cx="393.96" cy="1548.5" r="207.66" gradientTransform="matrix(.15417 .015429 -.053887 .53845 476.84 -444.96)" gradientUnits="userSpaceOnUse" xlink:href="#c"/>
<radialGradient id="w" cx="771.32" cy="1448.4" r="207.66" gradientTransform="matrix(.030948 .033147 -.152 .14192 713.99 115.73)" gradientUnits="userSpaceOnUse" xlink:href="#c"/>
<radialGradient id="v" cx="374.82" cy="1533.7" r="207.66" gradientTransform="matrix(.84386 .65214 -.93901 1.2151 1574.4 -1731.2)" gradientUnits="userSpaceOnUse">
<stop stop-color="#dfba49" offset="0"/>
<stop stop-color="#e4c873" stop-opacity=".65306" offset="1"/>
</radialGradient>
<radialGradient id="u" cx="158.99" cy="1406.5" r="207.66" gradientTransform="matrix(.010924 .12451 -.74964 .065772 1401.8 79.76)" gradientUnits="userSpaceOnUse" xlink:href="#a"/>
<radialGradient id="t" cx="678.5" cy="1448.2" r="207.66" gradientTransform="matrix(.023812 .1227 -.72212 .14014 1353.2 -26.714)" gradientUnits="userSpaceOnUse" xlink:href="#a"/>
<radialGradient id="s" cx="1969.2" cy="1585.3" r="207.66" gradientTransform="matrix(.1228 .023263 -.020931 .11049 26.207 208.23)" gradientUnits="userSpaceOnUse" xlink:href="#a"/>
<radialGradient id="r" cx="1641.7" cy="1760.2" r="207.66" gradientTransform="matrix(.1228 .023263 -.020931 .11049 26.207 208.23)" gradientUnits="userSpaceOnUse" xlink:href="#a"/>
<radialGradient id="q" cx="4795" cy="-728.98" r="207.66" gradientTransform="matrix(.15376 -.060629 .041251 .10462 -76.908 606.22)" gradientUnits="userSpaceOnUse" xlink:href="#b"/>
<radialGradient id="p" cx="4144.9" cy="1670.7" r="207.66" gradientTransform="matrix(.10502 .014516 -.010364 .072451 78.677 305.24)" gradientUnits="userSpaceOnUse" xlink:href="#b"/>
<radialGradient id="o" cx="3315.9" cy="3110.5" r="207.66" gradientTransform="matrix(.64201 .22306 -.033927 .09765 -1574.6 -591.26)" gradientUnits="userSpaceOnUse" xlink:href="#e"/>
<radialGradient id="n" cx="3383.4" cy="72.615" r="207.66" gradientTransform="matrix(.39773 -.093367 .011656 .049654 -906.33 607.25)" gradientUnits="userSpaceOnUse" xlink:href="#b"/>
<radialGradient id="m" cx="5263.6" cy="484.89" r="207.66" gradientTransform="matrix(.01307 -.35177 .092581 .0034397 550.99 2241)" gradientUnits="userSpaceOnUse" xlink:href="#b"/>
<radialGradient id="l" cx="3020.4" cy="1497.7" r="207.66" gradientTransform="matrix(-.01174 .12454 -.9348 -.088126 1779.1 309.61)" gradientUnits="userSpaceOnUse" xlink:href="#a"/>
<radialGradient id="k" cx="501.56" cy="1501.5" r="207.66" gradientTransform="matrix(.12647 .055706 -.094384 .21428 665.99 70.581)" gradientUnits="userSpaceOnUse" xlink:href="#a"/>
<radialGradient id="j" cx="3421" cy="1146.9" r="207.66" gradientTransform="matrix(.34952 -.19872 .073811 .12982 -698.74 817.33)" gradientUnits="userSpaceOnUse" xlink:href="#e"/>
<radialGradient id="i" cx="3351.6" cy="1456.3" r="207.66" gradientTransform="matrix(.17107 -.0089215 .008027 .15392 -177.64 252.51)" gradientUnits="userSpaceOnUse" xlink:href="#b"/>
<radialGradient id="h" cx="2793.9" cy="1289.3" r="207.66" gradientTransform="matrix(.16126 .030617 -.027486 .14542 -72.409 142.95)" gradientUnits="userSpaceOnUse" xlink:href="#b"/>
<radialGradient id="g" cx="565.64" cy="1049.4" r="207.66" gradientTransform="matrix(-.10627 -.19477 .54493 -.29732 122.66 642.4)" gradientUnits="userSpaceOnUse" xlink:href="#a"/>
<radialGradient id="f" cx="365.71" cy="359.51" r="304.29" gradientUnits="userSpaceOnUse">
<stop stop-color="#fff" stop-opacity=".46392" offset="0"/>
<stop stop-color="#91918f" stop-opacity="0" offset=".5"/>
<stop stop-color="#5a5a57" stop-opacity=".19588" offset=".68972"/>
<stop stop-color="#3f3e3b" stop-opacity=".45361" offset=".86538"/>
<stop stop-color="#171715" stop-opacity=".74227" offset="1"/>
</radialGradient>
</defs>
<g transform="translate(-61.436 -52.367)" fill-rule="evenodd">
<path transform="matrix(1.007 0 0 1.0047 -.42408 -3.1109)" d="m670 359.51c0 168.05-136.23 304.29-304.29 304.29-168.05 0-304.29-136.23-304.29-304.29 0-168.05 136.23-304.29 304.29-304.29 168.05 0 304.29 136.23 304.29 304.29z" color="#000000" fill="#e8d794"/>
<path d="m522.05 622.27c5.2985-2.9464 7.6587-4.5214 11.161-6.6964-4.623-2.0857-11.066-9.2832-16.071-11.786-6.0241-3.0121-6.9753-6.4728-8.5714-12.857-1.2056-4.8224 12.545-4.2857 17.143-4.2857 10.254 0-0.52254-10.523-1.4286-11.429-2.2961-2.2961-15.764-3.2268-20-4.2857-7.4645-1.8661-11.798-2.8571-20-2.8571-8.9263 0-11.453 1.4765-14.286 7.1429-2.331 4.662-2.3365 13.244-4.2857 17.143-2.253 4.5061-18.62 0.34499-20 0-5.1792-1.2948-13.588-7.3339-17.143-10-6.0313-4.5235-11.318-7.1152-17.143-8.5714-7.0371-1.7593-13.978-6.5552-18.571-10-3.35-2.5125-13.541-4.8138-17.143-5.7143-6.6637-1.6659-12.26-1.4286-20-1.4286-5.4902 0-15.127-1.2819-21.429-2.8572-10.086-2.5215-20.124-1.8166-30-4.2857-7.6484-1.9121-16.155-4.2857-24.286-4.2857-7.805 0-18.291-5.287-25.714-7.1429-5.9831-1.4958-14.52-6.9616-18.571-10-4.0956-3.0717-11.706-5.1386-15.714-7.1429-4.8135-2.4068-13.224-1.4286-20-1.4286-7.3296 0-12.968-1.4563-18.571-2.8571-5.7215-1.4304-9.7697-5.484-12.857-8.5714-4.0026-4.0026 1.2643-13.629 1.4286-14.286 0.30217-1.2087 12.499-2.8534 14.286-10 2.1834-8.7334 11.945 1.032 12.857 2.8572 2.801 5.6021 12.495 1.3381 18.571 2.8571 5.4726 1.3681 7.0292 8.4578 10 11.429 5.8526 5.8526 2.372-2.3452 4.2857-10 0.86714-3.4686 14.811-2.8571 18.571-2.8571 5.1965 0 14.485 1.8355 18.571 2.8571 10.181 2.5451 10.628-5.2001 25.714-1.4286 6.7117 1.6779 10.366 6.8773 17.143 8.5714 9.8143 2.4536 11.653-1.2037 17.143 4.2857 5.161 5.161 1.9717 10.885 10 2.8572 6.3995-6.3995 3.3255-2.4125 5.7143 7.1428 1.9979 7.9918 10.561-1.9897 12.857-4.2857 4.2592-4.2592-5.7143 11.119-5.7143 17.143 0 2.4194 14.195 4.9546 15.714 5.7143 3.7117 1.8559 3.785 12.003 2.8571 15.714-2.567 10.268 1.9847 8.2934 7.1429 5.7143 5.9707-2.9854 4.0773-10.834 2.8571-15.714-1.586-6.3442-3.0427-10.686-1.4286-17.143 0.68266-2.7306 5.3268 10.121 4.2857 14.286-2.8089 11.236 5.8822 8.5295 11.429 7.1429 0.74147-0.18537 0-19.493 0-21.429 0-2.381 5.7143 1.9048 5.7143 4.2857 0 1.3917 16.426-7.8548 5.7143 2.8572-8.0471 8.0471 3.8716 4.4928 7.1429 2.8571 5.5436-2.7718 5.5762 1.2905 10 5.7143 2.2327 2.2327 0.60534-20.016 0-21.429-0.9058-2.1135-11.319-7.0335-12.857-8.5714-3.9311-3.9311-8.242-5.3848-12.857-10-7.3383-7.3383-7.8485-2.1515-10 0-3.8392 3.8392 9.018 6.1608 12.857 10 2.9422 2.9422 13.604 8.5714 1.4286 8.5714-3.733 0-11.728-5.8642-14.286-7.1428-5.0721-2.536-4.4581-10.69-5.7143-15.714-1.756-7.0241-1.6639-13.799-2.8571-18.571-2.2609-9.0435 2.8486-15.706-4.2857-8.5714-1.292 1.292 3.4819 15.356 4.2857 18.571 1.5574 6.2295 0 14.969 0 21.429 0 10.618-6.3704-6.9103-7.1429-10-1.7091-6.8363-2.8571-11.161-2.8571-18.571 0-6.9828-3.5182-11.322-5.7143-15.714-2.9047-5.8094-2.9834-10.126-7.1429-14.286-0.51168-0.51169 2.3986 15.308 2.8572 17.143 1.5367 6.1468 4.0931 10.658 5.7143 17.143 1.4318 5.7271 2.8572 10.05 2.8572 18.571 0 12.412-4.717 4.8517-7.1429 0-2.4579-4.9159-5.4008-9.6865-8.5714-12.857-6.0927-6.0927 3.8344-11.541-7.1429-14.286-7.5867-1.8967-5.784-5.0174-14.286-7.1429-4.4329-1.1082 6.4388-10.724 7.1429-11.429 7.2608-7.2608-18.156-5.9222-4.2857-12.857 7.4523-3.7261-7.3876-9.4081-8.5714-10-0.92256-0.46128-8.5714-19.442-8.5714-4.2857 0 8.34-0.3129 7.2993-8.5714 11.429-3.8641 1.932 1.4286 12.657 1.4286 17.143 0 8.2242 3.1667 10.31 7.1428 14.286 6.0536 6.0536 5.993 13.284-1.4286 11.429-5.748-1.437-9.3869-4.2857-18.571-4.2857-8.6602 0-2.4794-8.5714-12.857-8.5714-8.6232 0-11.188 1.5489-17.143-1.4286-7.4556-3.7278-5.7664-9.7914-4.2857-15.714 2.2442-8.977-5.5288-8.525-11.429-10-7.5816-1.8954-12.723 1.4286-20 1.4286-6.2692 0-6.106 9.3548-8.5714 14.286-0.87578 1.7516-11.949 6.5586-14.286 7.1428-4.3827 1.0957-11.354-5.6768-14.286-7.1428-5.3815-2.6907-13.608-1.4286-20-1.4286-4.7052 0-12.437-5.9664-17.143-7.1428-8.5362-2.134-13.561 2.8372-15.714 7.1428-3.765 7.5299-2.0692 9.606-8.5714 12.857-4.7992 2.3996-17.05-0.69111-20-1.4286-5.7404-1.4351-9.7609-5.4752-12.857-8.5714-4.3706-4.3706-6.9582-7.0967-12.857-8.5714-10.379-2.5947-9.0641 0.83844-7.3214 6.4286 9.5277 30.563 27.188 61.831 43.214 83.75 2.2859 3.1264 33.1-2.2161 35.536-1.6071 6.5084 1.6271 12.908 2.1681 20 5.7143 6.012 3.006 14.132 3.4945 18.571 5.7143 7.5948 3.7974 12.437 7.7521 21.429 10 7.592 1.898 12.658 1.2792 18.571 5.7143 3.9335 2.9502 16.939 5.6632 22.857 7.1429 7.1262 1.7816 14.163 4.2551 20 5.7143 8.3413 2.0853 19.191 10.31 24.286 12.857 6.8632 3.4316 15.964 5.4786 24.286 7.1429 8.8869 1.7774 15.936 4.2857 25.714 4.2857 7.8368 0 18.107 5.2409 25.714 7.1429 2.7718 0.69296 2.0203 6.5511 0 8.5714-1.3627 1.3627 14.725 5.4668 15.714 5.7143 6.9694 1.7424 14.557 1.1392 21.429 2.8572 6.2295 1.5574 14.969 0 21.429 0h21.429 28.571c8.627 0 12.743-1.4 18.571-2.8572 6.2295-1.5574 11.309-0.0893 17.768-0.0893z" color="#000000" fill="url(#ac)"/>
<path d="m649.29 382.36c3.4977 10.397 3.6394 22.661-1.5436 32.514-4.1736 2.0615-7.9626 3.5112-6.5556 9.5939-4.5821 6.9673 1.4996 13.678 4.0721 20.04 3.4031 4.5995 7.3845 18.391-2.8068 14.877-2.6041-5.4373-7.6212-9.5151-11.759-2.5381-3.4071 7.6937-1.9036 16.988 6.177 20.656 3.8393 7.8639-12.81 5.2595-9.013 14.856 2.2554 7.9904-7.3319 15.377-12.695 7.8437-1.0593-6.6498-6.7652-7.4647-8.7331-0.7008-0.80122 12.202-11.667 1.3485-12.482-5.2256-2.1891-7.865-12.441-7.6634-15.011-14.946-0.85704-7.1633-3.8606-16.782-12.939-15.573-9.304 3.914-4.2098 15.693 0.84771 21.132 4.1412 7.1327 10.173 12.233 16.853 16.77 4.1367 3.9769 16.064 13.226 8.7304 18.446-9.5455-1.5118-16.595-9.9605-22.282-17.243-5.8395-8.6456-15.117-14.413-20.848-23.142-3.7042-9.1468 1.0526-17.845 0.59604-27.008-2.619-7.1983 1.7373-15.853 10.11-11.31 5.3564 0.56497 11.241-7.619 14.594 1.2084 1.9373 7.1256 15.227 11.979 9.3006 19.534-5.8423 7.4568 3.1815 7.6012 8.2429 5.2145 6.5562-0.45401 16.023 2.1802 20.376-3.7322-0.22963-7.2892 1.9586-15.455 8.7706-19.287 5.1687-4.6315 4.2122-15.238-0.70289-19.941-7.6739-5.2669-2.2365-15.122-5.3379-22.236-1.9776-5.818 10.733-12.558 1.5096-16.698-9.4391 3.3887-8.4645-10.469-14.684-10.838-3.9141 6.2357-13.834 2.9948-15.646 12.017-7.5544 5.0138-18.453 3.4001-21.939-5.803-4.9567-11.162-9.572 4.212-6.5521 9.7179 3.7412 9.5268-8.036 8.4094-12.224 10.96 0.33098 6.3336-0.97159 13.882-9.26 10.293-9.6853-3.3608-0.22941-15.915-2.0834-20.388-7.7493-0.70138-21.307 0.81409-21.883-10.088 4.5603-8.3329 15.103-8.9621 23.463-9.5806 3.1205-3.6787 4.8927-7.9242 10.228-5.1944 7.4977-4.1764 6.9901-12.56 0.74698-17.469-0.17698-4.5319-1.1062-14.131 1.8109-15.863 4.7605 1.3071 6.0245 14.813 10.09 10.832-2.2126-6.2961-2.3696-17.661 6.9605-11.094 0.9456 5.3832-0.7095 16.884 8.5563 12.555 6.6552-5.3562 19.616-3.1109 14.585 7.3345-5.657 4.0976-7.9668 18.859 2.8018 16.013 8.3495 0.70242 13.325-11.601 22.153-7.4591 5.536 7.1153 11.582 14.414 21.763 12.819 5.1332 1.4534 8.977 5.6627 13.641 8.1301z" color="#000000" fill="url(#ag)"/>
<path d="m238.57 266.65c9.1921 1.5065 17.735-3.8874 26.698-5.0429 12.043-1.5567 24.478 0.6823 36.235-3.1906 7.3564-1.4791 12.937-7.2876 20.428-8.448 6.6114-3.2428 14.136-2.3816 20.873-4.8182 6.6213-3.6485 13.98-5.194 21.22-7.0823 6.7158-2.3309 13.129-5.6076 20.341-6.25 7.9039-2.294 16.556-1.6602 24.242 0.68684-5.9003 6.0529-13.539 9.8895-20.508 14.496-7.8701 6.0467-12.657 15.246-14.969 24.741-2.5826 5.4479-7.3883 10.487-13.334 12.054-14.331 3.0288-29.234-0.18979-43.542 3.269-11.203 1.7113-22.578 0.53847-33.833 1.5026-7.8332 0.46572-13.121-6.1659-19.999-8.4793-6.7046-0.8068-14.657-0.32549-19.096-6.6145-1.8207-2.0987-3.3227-4.4491-4.7542-6.823z" color="#000000" fill="url(#t)"/>
<path d="m437.14 232.36c2.8373 0 16.276 1.5691 21.429 2.8572 8.9942 2.2486-9.5017 8.5714-12.857 8.5714-6.5775 0-13.32 1.4286-21.429 1.4286-8.551 0-12.654 1.0206-20 2.8571-7.5883 1.8971-13.991 4.8526-18.571 7.1429-7.2362 3.6181-12.11 6.0552-17.143 8.5714-5.1644 2.5822-8.1181 6.6895-11.429 10-7.8715 7.8715-0.0532 7.8705 2.8571 7.1429 5.8044-1.4511 9.2435-4.9578 12.857-8.5714 3.864-3.864 10.266-5.1329 14.286-7.1428 6.2747-3.1374 11.702-4.354 17.143-5.7143 6.3843-1.5961 10.416-2.604 17.143-4.2857 5.9904-1.4976 10.437-2.8572 18.571-2.8572 8.1569 0 11.507-0.67527 18.571 2.8572 6.9534 3.4767 16.127 0.96832 2.8571 4.2857-7.3568 1.8392-14.182 0.66223-18.571 2.8571-5.2683 2.6342-0.12075 12.978-4.2857 17.143-5.4825 5.4825-6.1776 7.1429-15.714 7.1429-6.8828 0-9.6945-4.2093-15.714-5.7143-3.3391-0.83477-9.9277 7.1067-12.857 8.5714-6.2728 3.1364-9.8661 2.7232-14.286 7.1429-3.4273 3.4273-5.5191 11.038-7.1429 14.286-3.3282 6.6563-5.9052 10.382-8.5714 15.714-2.8104 5.6208-12.857 4.3625-12.857-2.8572 0-7.0978 4.2857-10.513 4.2857-18.571 0-6.4563 4.6375-11.78-2.8572-4.2857-3.8095 3.8095-1.9048 13.333-5.7143 17.143-5.2597 5.2597-13.017-8.0966-17.143-14.286-1.8678-2.8017-3.7757 7.1429-7.1429 7.1429-9.2164 0-1.0288-16.114-11.429-5.7143-2.5908 2.5908 4.2857 12.631 4.2857 17.143 0 9.1639-0.91108 10.942-8.5714 12.857-6.9716 1.7429-8.094 1.6673-14.286-1.4286-4.7846-2.3923-10.016-6.4366-14.286-8.5714-6.3086-3.1543-12.795-3.5402-17.143-5.7143-5.5769-2.7885-13.405-1.5655-18.571-2.8571-8.6961-2.174-13.798 0.94059-18.571 5.7143-6.0388 6.0388-5.9441 4.8851 1.4286 8.5714 8.6382 4.3191 1.6492 9.1754-2.8572 11.429-6.533 3.2665-14.46 4.3294-20 5.7143-6.2295 1.5574-14.969 0-21.429 0-5.5561 0-13.468 6.734-17.143 8.5714-8.6757 4.3378 1.832 11.832 4.2857 14.286 5.1182 5.1182 6.8812 5.1909 10 11.429 2.3136 4.6273 0.45495 16.106 1.4286 20 2.0171 8.0683 9.6945 8.7781 11.429 15.714 1.7947 7.1788-11.757 5.7143-17.143 5.7143-5.5793 0-12.584-9.7265-14.286-11.429-3.5714-3.5714-5-9.2857-8.5714-12.857-3.421-3.421-15.028-0.88592-18.571 0-9.461 2.3652-9.909-5.3502-11.429-11.429-1.176-4.7041 4.0762-12.438 5.7143-15.714 3.3645-6.729 4.6378-12.878 2.8571-20-2.223-8.8921 0.86645-13.29 5.7143-15.714 5.8787-2.9393 12.905-2.1669 17.143-4.2857 6.9087-3.4544 7.7571-6.5821 15.714-8.5714 9.5771-2.3943 13.503-2.5833 11.429 5.7143-1.4507 5.8028-9.4706 10 2.8571 10 8.8877 0 10.162-2.8571 18.571-2.8571 5.7636 0 5.7143-11.734 5.7143-12.857 0-5.5739-7.1429-5.4485-7.1429-14.286 0-5.0089 9.3827-8.5714 14.286-8.5714 8.6097 0 10.535-2.3218 15.714 2.8571 3.7031 3.7031 7.1083 11.29 4.2857 0-2.5446-10.178 3.589-9.8258 10-11.429 10.018-2.5045 4.1623-6.3977-4.2857-4.2857-11.348 2.837-2.9853-8.5074 0-10 4.9728-2.4864 17.144 0 22.857 0 6.1906 0 9.9563 4.2748 15.714 5.7143 8.147 2.0368 10.716-2.8571 18.571-2.8571 6.6826 0 9.3882-5.9192 11.429-10 0.62315-1.2463 18.307-2.4338 20-2.8571 5.3072-1.3268 9.9639-5.6782 12.857-8.5714 2.8996-2.8996 11.931-5.7143 17.143-5.7143 5.9012 0 10.469-5.8316 15.714-7.1428 4.297-1.0742 9.9364-4.2698 15.714-5.7143 7.558-1.8895 10.994-5.6057 17.143-7.1429 6.8389-1.7097 13.771-1.2 18.571 0 3.0144 0.75361 9.4638-1.0356 11.429-1.4286z" color="#000000" fill="url(#ae)"/>
<path d="m264.29 375.22c6.6144 1.6536-13.182-4.2857-20-4.2857-7.2994 0-14.631 0.0862-20 1.4286-8.2383 2.0596-11.389 6.9859-12.857 12.857-2.6448 10.579 9.8586 3.6068 12.857 2.8571 7.5263-1.8816 10.198-5.4066 17.143-7.1429 6.9457-1.7364 11.587 3.6505 15.714 5.7143 6.008 3.004 9.4139 4.4322 15.714 2.8571 6.3442-1.586 10.686-3.0427 17.143-1.4286 6.1615 1.5404 15.939-0.41336 20-1.4286 9.5386-2.3847-8.7896-8.2688-10-8.5714-9.25-2.3125-10.079-1.0576-15.714-8.5714-1.8171-2.4228-10.916-6.8867-14.286-8.5714-6.9234-3.4617-11.283-6.8519-7.1429 1.4286 3.82 7.64 6.6598-0.22104 1.4286 12.857z" color="#000000" fill="url(#ad)"/>
<path d="m428.57 488.08c3.0491 6.0982-13.386-5.9393-20-4.2857-4.5499 1.1375 1.5195 10.76 5.7143 12.857 6.4269 3.2134 11.106 4.8387 15.714 7.1428 5.2718 2.6359 9.8321 4.916 14.286 7.1429 8.6513 4.3257-0.77763 11.429-7.1428 11.429-4.4663 0-2.8518 8.5501-4.2857 14.286-1.8601 7.4403-6.1536 7.1428-14.286 7.1428-7.5107 0-6.6977-5.2226-14.286-1.4286-5.3696 2.6848-8.0027 6.5741-11.429 10-3.7205 3.7205 14.776 4.2857 17.143 4.2857 13.08 0 26.17 1.4286 37.143 1.4286 9.6215 0 12.644 0.21335 17.143-4.2857 7.6403-7.6403-7.4598-10-11.429-10-6.3994 0-10.262-6.7615-11.429-11.429-1.0053-4.0211 12.472-6.2359 14.286-7.1428 0.87101-0.43551-5.3575-15.001-5.7143-15.714-2.6292-5.2584-9.7615-11.19-12.857-14.286-3.5846-3.5846-0.90271-1.0079-8.5714-7.1429z" color="#000000" fill="url(#z)"/>
<path d="m65.714 306.29c5.5357-32.143 17.489-65.89 28.571-86.071-1.7751-8.0384 13.894 6.0365 18.571 10.714 5.8362 5.8362-3.0774 11.539-5.7143 12.857-5.6912 2.8456 13.021 2.8572 15.714 2.8572h24.286c8.7805 0 16.521-1.4286 25.714-1.4286 7.0211 0 15.062-0.19415 20-1.4286 6.6034-1.6508 11.194-4.227 17.143-5.7143 6.0248-1.5062 11.484-4.2995 17.143-5.7143 8.4754-2.1189 17.474-2.2258 25.714-4.2857 8.2233-2.0558 18.766-2.5485 25.714-4.2857 6.9813-1.7453 16.843-1.4286 22.857-1.4286 8.2521 0-12.639 9.3849-15.714 10-11.663 2.3326-23.145 3.486-34.286 5.7143-10.855 2.171-18.034 9.1515-27.143 11.429-9.4099 2.3525-14.783 6.1958-24.286 8.5714-8.0496 2.0124-17.239 8.6289-24.286 12.857-7.0932 4.256-14.747 6.176-20 11.429-4.7001 4.7001-15.42 4.2122-21.429 5.7143-8.9824 2.2456-17.182 2.8769-25.714 7.1429-7.7743 3.8871-14.566 4.4257-20 7.1428-5.4657 2.7329-11.136 2.784-17.143 4.2857-1.3859 0.34648-4.2857-0.35714-5.7143-0.35714z" color="#000000" fill="url(#aa)"/>
<path d="m543.93 107.72c-22.537-15.874-53.612-31.106-68.75-36.071-5.1376 1.2844-28.779 9.6572-36.607 13.571-5.6847 2.8424-16.984 3.8889-24.286 5.7143-9.915 2.4788-20.059 3.726-30 5.7143-9.9519 1.9904-18.436 3.6873-28.571 5.7143-10.089 2.0178-20.885 1.4286-31.429 1.4286h-30-24.286-22.857c-7.5639 0-14.143 0.0357-20-1.4286-16.163-4.0408-26.048-1.2641-32.857 3.5714-30.185 21.435-51.181 43.146-64.821 60.179-6.1491 6.7049 22.867 6.25 31.964 6.25 10.443 0 20.677 1.4286 31.429 1.4286 9.3731 0 18.825-1.4286 28.571-1.4286h27.143c14.832 0 28.52-2.8571 42.857-2.8571 11.497 0 22.523-2.8571 34.286-2.8571 8.6598 0 18.653-6.449 27.143-8.5714 13.193-3.2982 24.567-6.8562 37.143-10 9.0801-2.27 19.596-4.2857 28.571-4.2857 9.4283 0 22.352-3.4453 31.429-5.7143 12.035-3.0087 26.305-3.8667 35.714-8.5714 6.4767-3.2383 15.459-6.4692 24.286-10 6.949-2.7796 12.213-2.3391 20-4.2857 5.3871-1.3468 10.752-5.9115 13.929-7.5z" fill="url(#af)"/>
<path d="m234.29 479.51c-3.2879 5.8148-1.0834 13.547 2.8572 21.429 3.2552 6.5104 6.2529 9.11 11.429 14.286 4.4426 4.4426 105.88 34.189 110 42.857 3.5539 7.4726-12.972 5.7143-17.143 5.7143-9.0476 0-193.03-31.429-200-31.429-7.1429 0-24.287 1.6787-21.25 5.7143 118.09 156.91 306.58 144.66 404.82 82.679 2.0784-1.3112-14.024-7.9049-15-8.3929-5.4344-2.7172-7.617-9.5196-10-14.286-2.3116-4.6233-4.4511-13.519-5.7143-18.571-1.5359-6.1438-6.1667-10.113-11.429-11.429-6.2651-1.5663-10.165-3.1731-17.143-1.4286-6.9641 1.741-10.554 2.8571-18.571 2.8571-4.8222 0-13.111 1.4286-20 1.4286h-21.429c-8.1343 0-12.69-1.0297-20-2.8571-5.9928-1.4982-10.776-4.6736-15.714-7.1429-7.8688-3.9344-5.4833-5.0577 2.8571-7.1429 7.3533-1.8383 14.98 1.0617 18.571 2.8572 5.1037 2.5518 11.724 2.931 17.143 4.2857 6.2295 1.5574 14.969 0 21.429 0 13.524 0-0.51073-17.654-4.2857-21.429-4.021-4.021-5.5774-22.349-38.571-25.714-6.7273-0.68612-11.494-1.5882-17.143-4.2857-31.079-14.841-126.6-33.834-135.71-30z" color="#000000" fill="url(#ab)"/>
<path d="m487.14 149.51c-17.023 0.62197-30.382 13.144-45.894 18.698-11.7 3.9379-23.938 6.4494-36.338 5.5882-16.922-0.15362-33.89 0.67623-50.728-1.3672-12.535-0.39566-25-2.1298-37.575-1.49-17.629 0.70331-36.399-2.7344-52.755 5.6983-13.083 4.3704-27.037 6.1724-39.196 13.11-5.7829 1.4206-9.9473 8.3052-0.73789 6.569 6.337 0.0548 16.631-1.2353 20.279 3.7093-4.3 1.6033-17.406 4.3569-6.2289 7.4633 15.111 5.5309 31.204 1.5174 46.798 1.6907 15.069-1.0572 30.162-1.5805 45.234-2.5258 14.252 0.54502 27.946-3.8181 41.904-5.6422 16.96-1.0786 35.31 2.7911 50.791-6.233 9.2159-2.8232 17.078-8.2848 25.53-12.641 11.763-5.0454 23.689-9.7342 35.294-15.123 8.4354-4.1864 13.704-11.169 3.6238-17.504z" color="#000000" fill="url(#u)"/>
<path d="m656.43 460.93c27.737-76.969 24.677-167.15-17.857-245.89-11.82 0.01-39.93 10.214-35.714 28.75-6.9758 1.06-14.126-16.468-21.559-2.8571-9.8202 12.856-31.041 1.9442-15.616-10.26 20.073-1.9104 2.279-49.443-5.6824-19.74-0.59654 21.919-30.306 9.9596-34.393 27.771-5.2784 20.187-35.107-8.3933-33.763 15.673-3.5917 15.977-28.01 10.345-28.987 29.413-16.879 6.5276-37.734-0.67135-52.591 9.7241-12.459 10.559-29.487 18.09-30.541 36.963-8.4387 10.897 10.609 28.703-12.785 21.122-16.043-6.9484-27.019-5.9424-44.315-9.7823-19.223 10.014 11.123 17.301 20.671 16.824 9.2892 4.2484-7.429 12.36-27.029 7.8463-6.9207-1.6406-33.165-22.442-24.839-5.5544 16.653 12.668 47.879 16.266 57.833 23.893 10.045 14.167 0.37244-3.2891-17.777 6.156-12.706 13.882 5.6298 31.135 18.226 37.331 14.282 8.8779 21.422 26.057 38.355 30.939 14.09 12.098 34.131 22.84 49.077 4.5384 20.183-9.6513 26.298 19.962 43.518 24.689 16.759 3.3693 28.536 16.714 43.624 23.882 22.931 7.6243 0.86976 27.278-13.534 26.685-16.096 2.7411-31.629-6.3689-45.844-12.797-18 0.83064-28.671-15.628-43.251-23.416-17.117-13.165 4.5506 9.575 9.5396 13.029 12.148 11.563 32.403 11.599 39.885 26.805 9.2377 16.547 30.465 6.3081 45.026 7.3407 12.692-9.8753 48.957 8.1646 64.015 19.194 15.569-8.8201 18.835-37.348 7.3469-45.404-0.57466-10.618-49.531-55.646-57.52-36.143-6.5612 16.988-22.451-6.9058-17.984-15.536-15.027-2.9592-18.114-14.593-6.9845-25.024 5.8534-4.6521 7.947-25.055-0.69632-9.02-5.1783 11.171-24.554 10.464-10-1.4286 6.9576-6.5313 20.387-24.994 19.906-5.8615 7.4825 0.75537 22.768-1.1537 15.109 10.368 7.6146 7.2198 27.744-10.338 7.8421-10.221-3.6993-6.6605 7.5487-21.933-9.9776-18.205-7.5215-2.9828-9.8497-15.015-17.024-1.76-4.4662 6.047-23.963 16.356-22.952 14.354 10.406-1.622 6.8856-33.071 15.109-22.474 4.3204 24.135 13.726-23.579 0.55988-20.487-16.685 11.965-27.221-26.557-4.2857-21.429 1.7087-14.079 17.076-0.0305 24.286-12.857 8.469 0.47833-1.9559 31.166 10.997 14.878 8.535-11.743-0.40634-21.668-0.99676-34.878 14.149-5.9818 13.214-22.122 18.725-32.981-0.0521 9.7963 2.84 28.669 13.156 11.683 10.679-15.988 11.875 16.342 10.07 23.367 5.9855 7.9132 21.201-3.1224 24.893 11.398 22.664 9.6975-3.9181-19.774 3.1547-30.61 3.6425-13.914 26.841-10.945 20.017-29.778-6.4578-17.761 18.35-33.641 28.554-17.365 4.3695 14.439 5.3125 32.57-2.5637 45.914-8.8036 15.113-18.364 30.703-22.842 47.712-0.47072 16.3 31.365 14.677 26.741 35.556-0.34359 15.7-13.689 29.599-7.7352 46.629 3.3487 7.6601 4.9129 15.801 11.4 21.332z" color="#000000" fill="url(#v)"/>
<path d="m521.43 499.51c-9.7774-7.4202-18.927-15.64-28.051-23.817-3.7568-9.0764-13.556-11.665-19.232-19.126-6.4124-7.3575-16.871-7.5924-25.276-11.325-8.2693-1.5424-16.669 2.1767-25.101 0.20066-9.8336-0.34107-20.545 0.36933-28.879-5.9124-7.8347-4.6241-13.229-12.58-22.033-15.735-4.8982-2.8736-14.082-6.0023-17.955-3.2704 9.356 6.514 21.066 9.6118 28.886 18.356 8.0594 5.1332 12.875 14.217 21.594 18.291 9.0192 4.7825 20.725-0.92288 28.646 6.5346 6.4265 4.3014 8.8731 13.827 17.383 14.7 8.7933 1.4171 17.763 1.4947 26.412 3.8355 14.153 1.1218 23.945 12.833 32.297 23.043 5.5621 6.8385 17.044 5.6708 20.614 14.567 2.3661 8.5284 10.757 11.377 18.003 14.765 5.7468 5.0676 19.269 4.8937 14.898-5.8357-3.7258-6.7949-11.902-9.6794-15.721-16.617-5.4599-10.162-18.651-6.0839-26.487-12.653h2e-5z" color="#000000" fill="url(#o)"/>
<path d="m188.57 432.36c-6.8984 0-12.857-7.8472-12.857 7.1429 0 2.3104 11.585 7.2993 12.857 8.5714 3.6948 3.6948 11.267 3.9689 15.714 2.8571 5.4073-1.3518-1.7731-11.773-5.7143-15.714-2.4841-2.4841-6.4428-2.1457-10-2.8572z" color="#000000" fill="url(#r)"/>
<path d="m224.29 426.65c-5.8873-5.8873-12.879 2.9449-14.286 8.5714-1.7301 6.9203 8.4718 7.1428 14.286 7.1428 5.7095 0 9.2926-4.2857 17.143-4.2857 9.0889 0 11.415 1.4146 15.714 5.7143 3.4353 3.4353 6.7601 11.046 7.1428 11.429 2.6004 2.6004 4.2857-14.243 4.2857-17.143 0-6.2317-5.6921-9.2746-10-11.429-5.5337-2.7669-10.393-4.384-15.714-5.7143-6.1791-1.5448-7.7522-6.933-10-11.429-2.8326-5.6653 5.908-5.3087-7.1428-8.5714-5.3875-1.3469-8.8982-7.2246-14.286-8.5714-4.9108-1.2277 6.4206 7.8492 10 11.429 3.9642 3.9642 2.8571 15.183 2.8571 22.857z" color="#000000" fill="url(#s)"/>
<path d="m665.71 429.51c5.8133-25.027 9.1608-50.742 8.6222-76.465-0.41467-3.8405 0.20899-9.6681-1.2559-12.254-1.1686 0.68117-3.4401 0.53236-1.1138-0.45473-2.9836 0.2009-4.1242 7.1166-6.4519 2.4122-1.5174-3.84-7.068-3.5858-7.0237 0.98237-0.20772 3.55 1.8053 6.749-0.7337 9.8781-1.9917 3.9316 1.6448 6.3123 3.4797 9.0376 1.608 4.446-6.3738 6.2744-2.6231 10.822 2.4765 3.7668 7.9261 3.8478 10.477 7.5906 1.8203 3.3616-1.0308 6.9811-0.57792 10.549 0.68316 5.723-2.6789 11.16-1.5301 16.871-0.27407 4.9609-6.5445 3.9923-9.2949 6.6528-2.9962 2.6269-4.0181 8.1745-1.1004 11.16 2.9327 1.5307 6.2856 1.1381 9.1261 3.2185z" color="#000000" fill="url(#m)"/>
<path d="m609.39 169.85c-5.9956-0.78021-4.0835 6.7186-11.973 10.664-7.3217 3.6609-10.884 7.5847-18.571 11.429-7.6498 3.8249-13.928 10.536-21.429 14.286-6.6989 3.3494-11.864 7.3605-17.143 10-7.2393 3.6196-10.547 3.4037-15.714 8.5714-4.3474 4.3474-14.808 7.6304-18.571 8.5714-3.4822 0.87055-8.2043 10.463-10 12.857-3.6948 4.9264-6.0995 7.9133-8.5714 12.857-2.6429 5.2859-6.2661 8.2466-8.5714 12.857-2.9386 5.8772-8.1953 9.0226 1.4286 11.429 6.2295 1.5574 14.969 0 21.429 0 4.2856 0 11.413-7.1391 17.143-8.5714 4.6073-1.1518 10.548-4.4228 15.714-5.7143 6.5145-1.6286 13.392-1.5623 18.571-2.8571 6.2295-1.5574 14.969 0 21.429 0h21.429c6.4647 0 10.994 2.8571 18.571 2.8571h21.429c5.2497 0 14.496 10.551 16.615 14.791 3.0154 6.0309 4.858 10.572 8.5714 14.286 3.7499 3.7499 9.1048 11.154 8.5714 7.3954-7.3141-51.532-37.754-107.68-60.357-135.71z" color="#000000" fill="url(#g)"/>
<path d="m481.43 303.08c7.2328 0.4375 15.044-1.3959 21.705 2.2673 4.973 1.568 5.8701 7.7061 10.848 9.457 2.7358 1.8097 6.862 7.1861 0.73371 6.9324-5.0976 1.252-7.1642-4.2545-9.7692-7.3825-4.8666-3.8643-10.806 1.1124-16.309 0.15281-4.4673-0.38698-10.409 0.78128-13.324-3.4609-2.864-4.2201 0.77248-10.54-4.0078-13.677-7.8474-4.0877-16.905-2.0752-25.354-2.1046-4.4483 0.53083-9.8962-0.0288-13.286 3.4223-2.6502 4.4313-6.8093 7.3972-11.782 8.7949-6.4805 2.6344-10.316 8.9235-16.167 12.534-3.1716 3.1872-5.5683 6.742-10.228 7.6294-1.7623 2.202-0.47183 9.4234-4.9699 5.3189-4.659-2.5358-6.5081-7.6568-5.9471-12.736 0.18285-7.1013 8.8556 2.1221 10.683-2.8014 1.6997-4.02-0.0659-9.1172 2.6607-12.637 4.1164-3.3043 8.077 2.0062 11.301 2.9081 2.2399-5.7146 6.7954-10.164 8.9271-16.045 3.1762-3.5992 8.6077-1.5909 12.818-2.1288 4.1911-4.6286 11.948-5.6745 15.643 0.34907 3.8645 2.2328 8.8807 2.0237 13.038 0.7515 3.1063-3.7744 9.9334-9.5334 13.53-3.1932-1.0292 4.6609-0.89157 9.3683 4.3325 11.513 1.5054 1.5417 3.2353 2.8067 4.9236 4.1375z" color="#000000" fill="url(#n)"/>
<path d="m636.43 226.65c1.1481 1.1481 2.4346 6.006 4.2857 7.8571 3.0249 3.0249 2.9402 3.4883 0.71428 5.7143-1.9897 1.9897-7.7856 0.37504-9.2857 0-4.0274-1.0068-5-3.499-5 5.7143 0 2.0579-4.0255 4.7398-5 5.7143-1.5048 1.5048-4.0482-6.9072-4.2857-7.8572-1.1617-4.6469 1.1418-5.7143 5-5.7143 4.9729 0 6.4286 0.99975 6.4286-4.2857 0-5.3348 1.6822-6.0507 7.1429-7.1428z" color="#000000" fill="url(#q)"/>
<path d="m485.08 464.7c0-3.7445-1.3629 9.3776 2.0443 11.052 3.8232 1.879 3.0665 7.3949 3.0665 12.057 0 5.4738 2.9194 6.9971 7.1552 8.038 5.9838 1.4705 7.8994-2.741 10.222-5.0237 3.8643-3.7985-5.0797-9.0274-7.1552-10.047-4.388-2.1566-6.2878-3.3184-8.1773-7.0332-2.3127-4.5465-1.7677-5.8653-7.1552-9.0427z" color="#000000" fill="url(#p)"/>
<path d="m347.16 403.15c-2.2109-4.4317 6.231-7.7896 8.4419-12.221 3.1835-6.3812-4.1768-6.2392-6.5659-5.6406-3.8827 0.97286-5.9666 2.99-9.3799 4.7005-2.097 1.0509-5.8573 4.3454-8.4419 5.6406-4.2824 2.146-0.86506 8.6071 0 10.341 2.5276 5.0667-1.518 0.4949 0 6.5807 0.12332 0.49443 8.0383 4.8316 9.3799 7.5208 3.0017 6.0169-2.2395 7.3386 3.752 10.341 3.753 1.8807 5.4026-3.7604 10.318-3.7604 3.5714 0 5.6696 4.4759 10.318 5.6406 5.6725 1.4213 8.0858-2.4634 10.318-4.7005 3.7875-3.7961 0.3381-6.8431-0.938-9.401-0.46332-0.92874-8.8525-4.9063-10.318-5.6406-1.1495-0.57605-4.6642 5.8692-7.5039 6.5807-1.2237 0.30661-4.3504-8.7205-4.69-9.401-0.86038-1.7246-4.0912-5.5806-4.6899-6.5807z" color="#000000" fill="url(#h)"/>
<path d="m398.11 430.24c-0.80163-7.2456-15.009-14.57-11.976-2.1959-0.46783 9.1165-15.779 2.4193-13.347 13.554 0.90719 12.924 15.169 10.021 23.97 11.988 10.427 2.2566 11.089 13.86 15.583 21.266 8.6916 4.0386 14.933-8.5374 21.099-13.342 8.1669-2.865 10.183-18.424-1.5854-12.735-8.7194 3.4414-15.703-5.6687-5.4726-9.7589-1.786-4.606-11.291-0.47553-14.089-7.0247-3.9478-4.0298-9.4322-0.71212-14.183-1.7505z" color="#000000" fill="url(#i)"/>
<path d="m529.29 250.93c-0.50598-8.35 15.411-11.387 19.665-4.2337 2.2832 9.3352 7.8726 17.548 9.6223 26.687 2.2501 11.382-13.119 6.7033-16.43 0.4034-5.1418-5.8573-11.962-6.8418-17.738-1.8538-5.3522-1.0723-14.667 3.6962-10.12 8.5938 8.4969-0.52342 16.364 4.3756 17.692 13.113-0.48968 6.8857-13.715 10.118-18.586 4.1276-9.6889-1.5015-2.8916-15.621-12.677-18.267-5.9452-5.7968-0.33129-14.282 7.5317-12.534 5.8516-5.2024 16.812-2.3202 18.96-11.447 0.61886-1.5611 1.2129-3.1438 2.0792-4.5907z" color="#000000" fill="url(#y)"/>
<path d="m447.86 335.93c-3.9109-3.8275-13.073-7.9658-15 0.71428-0.65136 5.7315 10.784 0.62028 7.6865 8.5208-0.87651 6.7513 0.27441 13.096 8.3216 10.116 4.8726 6.5683-0.81554 17.155 8.2775 21.363 0.21387 8.7062 6.8562 12.414 12.688 17.688 6.9965 4.4848 1.4444 18.207-6.9736 15.884-5.853-2.5408-18.156-0.35848-17.87-8.8123 0.0106-5.3465 1.458-18.276-6.6112-15.806-8.0091 7.3181 4.636 16.069-1.3926 23.216-5.9706 7.0024 6.6433 13.503 5.3535 21.227-4.1547 6.4217 0.49331 12.688 7.8087 9.7034 6.1169-0.3435 7.0775-8.7102 10.333-9.771 7.9264 6.4176 3.6468-12.439 12.743-11.252 6.5143-3.6706 1.539-14.974 9.7345-18.752 4.9234-5.6934 4.2299-15.925-2.7-19.732-6.478-3.3136-7.3581-12.631-14.719-13.355-9.6574-2.1403-7.2556-15.602-16.251-18.81-4.2488-3.7581 2.7559-8.2399-1.4286-12.143z" color="#000000" fill="url(#x)"/>
<path d="m538.57 326.65c-8.2916-1.5246-16.661 2.7036-19.37 10.882-2.6612 7.4679-12.771 9.2282-13.77 17.571-3.495 6.8039 8.1297 17.652 11.7 9.1436 0.84292-7.2396 2.2479-14.726 7.1539-20.453 5.2635-4.5799 17.085 0.94893 19.112-7.9031 0.73967-4.3736 0.42096-8.1972-4.8263-9.2397z" color="#000000" fill="url(#w)"/>
<path d="m250 519.51c16.211 7.865 32.285 16.955 50.065 20.707 7.9355 1.2373 15.952 2.4875 23.418 5.5136 8.4427 0.963 16.702 2.6544 24.733 5.3931 14.822 2.6709 29.959 0.53407 44.916 1.1888 20.298 0.16683 40.628 0.49293 60.85-1.5563 5.3203 0.93397 16.145-3.502 18.608-0.0304-11.725 4.0181-24.277 5.1056-36.479 6.5881-9.974 0.0781-19.856 1.9179-29.843 1.4825-9.1841 0.99562-18.313 3.0017-27.604 2.1035-20.372-0.0763-41.607 2.1684-61.002-5.5431-6.5908-4.8263-13.529-9.1257-21.166-12.031-9.3727-4.4315-19.752-6.0521-29.274-10.093-10.286-0.85705-14.304-15.441-25.793-12.294" color="#000000" fill="url(#l)"/>
<path d="m580 395.22c6.1515-1.5379 9.9354-4.0272 11.429-10 1.8076-7.2304 9.588-4.4917 12.857-2.8572 5.8836 2.9418 5.5674 9.1591 4.2857 14.286-1.8841 7.5364-3.9267 8.9304 1.4286 14.286 4.1208 4.1208 5.7143 11.017 5.7143 17.143 0 4.7384-6.8588 9.4318-8.5714 12.857-3.2456 6.4913-5.3018 8.5714-14.286 8.5714-5.2432 0-9.9966-5.7109-12.857-8.5714-3.864-3.864-10.266-5.1329-14.286-7.1429-7.468-3.734-9.4578-1.7728-12.857-8.5714-1.9118-3.8236 5.1645-8.9004 7.1429-12.857 3.1122-6.2243 13.77-15.585 20-17.143z" color="#000000" fill="url(#k)"/>
<path d="m621.43 232.36c-10.491 6.6958-14.441 19.007-21.369 28.715-2.2082 6.7348-8.7316 10.82-15.774 9.8564-8.1404-0.58202-14.215 5.5371-21.19 8.6002-5.2764 5.668-9.7826 11.973-18.675 11.853-6.8036 0.2232-11.331 5.3546-16.406 9.071-6.8357 1.5431-16.084 5.3304-11.368 14.202 6.1244 0.60021 13.045-2.8817 17.89-6.9022 7.1552-6.7934 17.307-8.6447 26.831-8.4644 7.1754-0.27008 11.495-10.068 19.049-6.8381 5.8706 3.3539 15.674 8.9924 11.949 17.157-2.977 4.3067-9.226 16.295 1.4219 12.666 8.2039-1.5999 9.1223-11.245 9.1046-18.059 1.3686-6.9158 3.1397-14.09 0.1439-20.912-2.582-8.4039 4.0838-15.581 7.9966-22.354 3.8209-5.9577 8.7744-11.032 13.421-16.31 2.8477-4.1384-1.1881-8.685-3.0247-12.282z" color="#000000" fill="url(#j)"/>
<path transform="matrix(1.007 0 0 1.0047 -.42408 -3.1109)" d="m670 359.51c0 168.05-136.23 304.29-304.29 304.29-168.05 0-304.29-136.23-304.29-304.29 0-168.05 136.23-304.29 304.29-304.29 168.05 0 304.29 136.23 304.29 304.29z" color="#000000" fill="url(#f)"/>
</g>
<metadata>
<rdf:RDF>
<cc:Work>
<dc:format>image/svg+xml</dc:format>
<dc:type rdf:resource="http://purl.org/dc/dcmitype/StillImage"/>
<cc:license rdf:resource="http://creativecommons.org/licenses/publicdomain/"/>
<dc:publisher>
<cc:Agent rdf:about="http://openclipart.org/">
<dc:title>Open Clip Art Library</dc:title>
</cc:Agent>
</dc:publisher>
<dc:title>venus dan gerhards 01</dc:title>
<dc:date>2011-02-16T17:34:35</dc:date>
<dc:description>originally uploaded by Dan Gerhards for OCAL 0.18</dc:description>
<dc:source>http://openclipart.org/detail/118789/venus-dan-gerhards-01-by-anonymous</dc:source>
<dc:creator>
<cc:Agent>
<dc:title>Anonymous</dc:title>
</cc:Agent>
</dc:creator>
<dc:subject>
<rdf:Bag>
<rdf:li>astronomy</rdf:li>
<rdf:li>clip art</rdf:li>
<rdf:li>clipart</rdf:li>
<rdf:li>planet</rdf:li>
<rdf:li>venus</rdf:li>
</rdf:Bag>
</dc:subject>
</cc:Work>
<cc:License rdf:about="http://creativecommons.org/licenses/publicdomain/">
<cc:permits rdf:resource="http://creativecommons.org/ns#Reproduction"/>
<cc:permits rdf:resource="http://creativecommons.org/ns#Distribution"/>
<cc:permits rdf:resource="http://creativecommons.org/ns#DerivativeWorks"/>
</cc:License>
</rdf:RDF>
</metadata>
</svg>
