<svg viewBox="0 0 48 48" xmlns="http://www.w3.org/2000/svg"><defs><radialGradient id="a" cx="-27.422" cy="-16.483" r="9.781" gradientTransform="matrix(-2.7886 -.86976 .5798 -1.8589 -91.555 -46.959)" gradientUnits="userSpaceOnUse"><stop stop-color="#f87000" stop-opacity="0" offset="0"/><stop stop-color="#564000" stop-opacity=".46" offset="1"/></radialGradient></defs><g transform="translate(-1.288 1.252)"><path d="M44.695 22.594c.106 7.668-4.822 15.063-11.91 17.968-6.963 3.033-15.612 1.463-21.044-3.852-5.504-5.115-7.513-13.54-4.944-20.596C9.282 8.8 16.465 3.409 24.191 3.119c7.51-.486 15.018 3.868 18.37 10.597a19.437 19.437 0 0 1 2.134 8.877z" fill="#ff8600"/><path d="M15.208 13.768c.891-.026 1.675-.81 2.59-.511.62.419 1.16 1.078 1.968 1.097.822.085 1.564-.6 1.683-1.392.31-1.248-.22-2.535.09-3.783.563-.505 1.44-.28 2.007-.778.262-.698-.723-.808-1.2-.751-.72.014-1.515.217-2.171-.179-.135-.398-.037-1.134-.738-.946-.656.204-1.371.455-1.913.833-.313.652.589.468.958.534.572.058 1.268.161 1.594.69.204.667-.465 1.261-.242 1.945.085.653.356 1.299.232 1.965-.729.487-1.606.092-2.373-.067-.896-.226-1.883-.475-2.761-.045a6.177 6.177 0 0 0-2.419 1.957 3.81 3.81 0 0 0-.632 1.455c.187.605.989.603 1.43.29.496-.297.73-.834.959-1.336.171-.463.67-.601.938-.978z" fill="#f5cc6e"/><path d="M20.113 34.361c.097-.486-1.263-2.914-.68-3.4.583-.485 3.108-1.943 3.788-1.943s2.817-.388 2.817-.388 4.08-3.788 4.566-3.788c.485 0 1.554-1.457 3.497-.875 1.942.583 3.788 3.012 3.885 4.857.097 1.846.487 8.202-.193 8.59-.743.795-6.12 4.296-9.52 4.393-3.4.097-8.063-7.252-8.16-7.446z" fill="#b56112"/><circle transform="matrix(2 0 0 2 137.79 22.248)" cx="-56.25" cy=".25" r="9.75" fill="none" stroke="#3c2002" stroke-width=".3"/><path d="M33.596 20.758c.367-.656.037-1.668.818-2.073.785-.336 1.63-.525 2.436-.808.937-.299 1.849.188 2.768.319 1.233.277 3.169-.65 4.296-.057.27.763.442 2.463.505 3.007.065.941.062 1.802.025 2.898-.122.832.067 1.689-.79 1.828-1.254.311-2.824-.085-4.096-.143-.652.007-1.297-.054-1.874-.392-.968-.48-1.904-1.027-2.83-1.58-.288-.375-.387-.869-.586-1.3l-.672-1.699zM7.588 30.225c.367-.656.607-1.668 1.388-2.073.785-.336 1.629-.525 2.435-.808.937-.299 1.85.188 2.769.319 1.233.277 2.512.505 3.64 1.1.397.48.15 1.18.278 1.754.059 1.001.107 2.003.156 3.005.475.5.554 1.523-.304 1.662-1.253.311-2.558.07-3.83.012-.653.007-1.298-.054-1.874-.392-.969-.479-2.105-1.027-3.03-1.58-.29-.374-.992-1.732-.793-1.3z" fill="#edb951"/><path d="M23.293 27.352c.343-1.099 3.846-6.113 4.396-5.426.55.687 1.099 1.51 1.168 1.786.068.274-.619 3.022-.962 3.228-.343.206-4.465.55-4.602.412z" fill="#b56112"/><path d="M13.539 14.748c-.103 1.923.996 4.877 2.954 4.327 1.957-.55 3.503-.893 3.846-1.683.343-.79 1.133-.72.584-1.648-.55-.927-.962-2.335-1.58-2.542-.618-.206-4.74-1.957-5.804 1.546z" fill="#be7c18" fill-opacity=".979"/><path d="M29.681 11.314c-1.799.022-3.602.178-5.392.31 1.965.828 4.128.452 6.182.652 1.793.316 2.048 2.4 2.3 3.88.236 1.855.578 3.981-.514 5.633-.861.658-1.955.95-2.954 1.408-1.004-1.32-3.729-3.857-4.636-4.705.981 1.06 2.749 3.161 3.503 5.186-1.41.624-.443 2.563-1.408 3.537-1.34.086-2.433-1.03-3.503-1.717-1.966-1.334-2.728-3.767-4.5-5.29-1.043 1.184.794 2.904 1.58 3.95.833 1.112 2.478 3.142.928 4.293-2.123.84-4.354-.187-6.216-1.202-1.657-1.125-1.987-3.467-3.64-4.567-1.399-.356-3.87-1.72-4.456.343-.792 1.35-.505 3.123-.234 4.568.209.962.828 2.693 1.523 3.946.77-.956 3.182-3.1 4.678-1.954 1.219.648 1.944 1.973 3.4 2.232 1.759.097 1.28 2.725 2.575 3.297.819.278 3.237 1.52 2.507-.378-1.038-1.186-1.505-4.837.653-3.812.929.114 5.556 4.762 6.147 3.606.947-1.03-3.151-3.531-1.992-4.327 1.242-.671 3.676-3.37 4.5-4.362l2.334-1.58c1.843-.362 3.179 1.012 4.602 1.924.937 1.104 2.216.077 3.4.206.655-.053 2.875.107 3.04-.289.536-.837.018-1.804-1.253-1.22-1.462-.086-3.658.354-4.946-.552-1.316-.712-2.452-1.36-3.263-2.541-1.201-1.858 1.757-3.643 2.92-3.297 1.438.267 3.63 1.793 4.533.171-.032-1.445-3.03-.833-4.121-1.476-1.539-.424-2.809-1.06-3.71-2.542-1.17-.919-.986-3.106-2.781-3.297a26.069 26.069 0 0 0-1.786-.034z" fill="#ffe821"/><path d="M15.687 14c.51-.48 1.782-.317 2.083.302.762 1.567-.093 3.353-1.842 2.564-1.312-.592-1.213-1.949-.24-2.866zM25.985 8.312c.19.934-1.16 1.034-1.873 1.132-.9.124-1.933-1.126-.845-1.605.79-.349 1.765-.223 2.431.336.081.068.267.039.287.137zM33.164 14.838c-.96.897-2.468-.3-3.284-.863-1.093-.756-.579-2.644 1.108-2.008 1.231.465 2.062 1.46 2.053 2.502-.001.127.214.284.123.369z" fill="#5b3e13"/><path d="M29.628 20.279c0 .465-.76.842-1.19.842-.428 0-.845-.72-.845-1.185s.348-.842.777-.842c.43 0 1.258.72 1.258 1.185z" fill="#fdd878"/><path d="M30.216 6.434c1.603.34 2.428.34 3.108 1.311.68.971-.68.194-1.748-.34-1.069-.534-1.991-1.214-1.36-.971z" fill="#422a0a"/><path d="M20.614 16.396c1.58-.653 3.194-.824 3.572-.103.377.721 1.957 2.679 2.37 1.889s-1.924-4.121-2.302-4.053c-.377.07-5.048 2.233-3.64 2.267z" fill="#96460b"/><path d="M6.588 27.221c.632-1.7.395-2.526 1.22-2.526.826 0 1.895.826 1.895 1.166 0 .34-.437 1.603-.826 1.894-.389.292-1.67.632-1.864.68-.15.005-.328-1.117-.425-1.214z" fill="#a17027"/><path d="M23.224 29c.618-.48 1.511-1.511 1.649-.618.137.893.274 1.442-.207 1.786-.48.343-1.305.206-1.373-.07-.069-.274 0-.96-.069-1.098z" fill="#875d16"/><ellipse transform="rotate(231.36)" cx="-33.558" cy="5.551" rx="19.199" ry="19.199" fill="url(#a)"/></g></svg>